<?xml version="1.0" encoding="utf-8"?>
<!-- Generator: Adobe Illustrator 16.0.0, SVG Export Plug-In . SVG Version: 6.00 Build 0)  -->
<!DOCTYPE svg PUBLIC "-//W3C//DTD SVG 1.1//EN" "http://www.w3.org/Graphics/SVG/1.1/DTD/svg11.dtd">
<svg version="1.1" id="Layer_1" xmlns="http://www.w3.org/2000/svg" xmlns:xlink="http://www.w3.org/1999/xlink" x="0px" y="0px"
	 width="566.668px" height="150px" viewBox="0 0 566.668 150" enable-background="new 0 0 566.668 150" xml:space="preserve">
<g>
	<g>
		<path fill-rule="evenodd" clip-rule="evenodd" fill="#FFFFFF" d="M456.506,78.26c-2.072,2.688-5.037,4.09-7.823,5.791
			c-5.08,3.104-10.646,4.66-16.456,5.35c-2.755,0.326-5.585,0.279-8.369-0.184c-2.286-0.379-3.841-1.637-4.751-3.879
			c-2.511,2.033-5.357,3.201-8.454,3.809c-2.473,0.486-4.935,0.445-7.361-0.201c-2.029-0.539-3.751-1.637-4.919-3.4
			c-0.489-0.738-0.943-0.734-1.653-0.5c-1.672,0.555-3.27,1.262-4.82,2.096c-2.744,1.475-5.632,2.408-8.798,2.365
			c-3.112-0.043-5.477-1.955-6.101-5.023c-0.085-0.416-0.183-0.83-0.304-1.375c-0.768,0.613-1.432,1.174-2.124,1.695
			c-6.791,5.109-14.404,7.389-22.894,6.609c-0.673-0.063-1.343-0.197-2.004-0.346c-5.087-1.143-6.649-5.855-5.406-10.148
			c1.496-5.168,4.572-9.242,8.516-12.77c3.07-2.746,6.088-5.551,8.59-8.85c0.262-0.344,0.506-0.701,0.938-1.305
			c-1.593,0.172-2.94,0.322-4.289,0.461c-2.11,0.217-3.071-0.873-2.612-2.934c0.234-1.047,1.044-1.457,1.935-1.76
			c1.714-0.586,3.525-0.658,5.293-0.963c1.14-0.197,2.281-0.387,3.429-0.529c0.802-0.1,1.235-0.695,1.751-1.176
			c6.432-5.992,12.941-11.902,19.57-17.678c1.959-1.705,4.05-3.252,6.271-4.609c1.438-0.879,2.966-1.529,4.637-1.861
			c0.88-0.176,1.176,0.223,1.265,0.965c0.117,0.975-0.283,1.795-0.809,2.568c-1.158,1.711-2.762,2.984-4.271,4.352
			c-5.813,5.262-11.315,10.838-16.687,16.545c-0.104,0.111-0.196,0.232-0.494,0.584c2.28-0.248,4.305-0.451,6.325-0.691
			c7.296-0.867,14.601-1.65,21.916-2.342s14.636-1.314,21.971-1.764c0.657-0.041,1.106,0.076,1.624,0.479
			c1.76,1.371,3.576,2.672,5.602,4.17c-2.719,0.164-5.162,0.301-7.604,0.459c-6.896,0.445-13.769,1.168-20.644,1.848
			c-5.882,0.582-11.777,1.031-17.667,1.527c-4.019,0.338-8.042,0.623-12.058,0.994c-2.389,0.223-4.387,1.338-6.182,2.902
			c-4.026,3.51-7.444,7.58-10.847,11.664c-1.943,2.332-4.11,4.477-5.887,6.949c-0.748,1.041-1.408,2.139-1.787,3.369
			c-0.964,3.129,0.951,5.572,4.21,5.387c2.092-0.119,4.073-0.752,6.043-1.398c4.06-1.334,8.053-2.816,11.663-5.176
			c0.969-0.633,2.01-1.199,3.192-1.281c0.579-0.041,0.691-0.467,0.956-0.783c4.788-5.717,10.664-9.805,17.867-11.875
			c2.111-0.607,4.279-0.549,6.417-0.123c2.681,0.535,4.324,2.615,4.358,5.385c0.022,1.871,0.022,1.885,1.803,1.938
			c0.621,0.018,0.953,0.311,1.098,0.891c0.3,1.203-0.023,2.305-0.605,3.33c-0.774,1.363-1.811,2.533-2.912,3.641
			c-0.484,0.488-1.03,0.955-0.805,1.742c0.247,0.863,1.009,1.104,1.759,1.24c3.493,0.631,6.735-0.086,9.76-1.896
			c1.234-0.738,2.214-1.65,2.99-2.939c1.405-2.334,3.345-4.285,5.294-6.176c3.018-2.928,5.842-6.021,8.498-9.277
			c3.599-4.408,7.58-8.42,11.986-12.045c2.615-2.15,5.535-3.828,8.232-5.838c0.096-0.07,0.209-0.129,0.283-0.219
			c1.764-2.145,3.835-1.48,5.867-0.576c1.964,0.873,2.517,2.717,1.546,4.65c-2.355,4.689-5.769,8.506-9.725,11.885
			c-1.763,1.506-3.543,2.992-5.257,4.551c-3.353,3.051-7.411,4.818-11.572,6.357c-3.79,1.404-6.737,3.744-8.789,7.215
			c-0.487,0.824-0.926,1.68-0.991,2.664c-0.115,1.727,0.72,2.736,2.45,2.881c2.697,0.229,5.326-0.32,7.971-0.73
			c6.091-0.947,11.295-3.752,16.018-7.57c1.346-1.088,2.219-2.619,3.445-3.828c1.381-1.359,2.919-2.473,4.69-3.268
			c2.082-0.934,4.065-2.029,5.857-3.463c1.025-0.82,2.194-1.293,3.56-1.082c1.873,0.291,2.775,1.82,2.141,3.619
			c-0.414,1.176-1.327,1.855-2.33,2.473c-2.659,1.637-4.319,4.016-4.94,7.049c-0.585,2.85,0.891,4.955,3.752,5.309
			c5.964,0.74,11.714,0.137,16.968-3.09c0.304-0.186,0.583-0.416,0.859-0.643c1.953-1.602,4.067-2.955,6.316-4.102
			c1.984-1.014,2.49-2.021,2.103-4.154c-0.484-2.656-0.005-3.654,2.436-4.75c2.053-0.922,4.188-1.504,6.482-1.457
			c3.799,0.076,7.588,0.254,11.327,0.965c3.355,0.637,4.36,3.164,2.458,6.027c-0.647,0.977-1.457,1.811-2.356,2.543
			c-2.449,1.99-4.825,4.074-7.466,5.822c-0.308,0.203-0.895,0.355-0.752,0.793c0.152,0.465,0.74,0.355,1.16,0.328
			c1.553-0.094,3.104-0.244,4.658-0.326c3.04-0.158,5.965,0.48,8.789,1.518c1.255,0.459,2.322,0.324,3.431-0.275
			c1.482-0.803,2.739-1.904,4.097-3.172c0.271,1.057,0.499,1.961,0.733,2.861c0.111,0.43-0.196,0.668-0.427,0.928
			c-1.084,1.229-2.19,2.438-3.267,3.672c-1.568,1.801-3.552,2.377-5.838,1.945c-2.193-0.414-4.365-0.943-6.558-1.361
			c-3.425-0.654-6.824-0.441-10.193,0.422c-1.781,0.455-3.572,0.85-5.432,0.793c-1.08-0.033-2.075-0.213-2.633-1.303
			c-0.606-1.188-0.318-2.25,0.461-3.227c1.314-1.643,2.957-2.92,4.718-4.033c3.25-2.053,6.419-4.199,9.06-7.037
			c1.03-1.107,0.984-1.604-0.403-2.158c-2.001-0.805-4.086-1.09-6.219-0.66c-1.837,0.369-3.099,1.459-3.607,3.281
			c-0.914,3.277-3.028,5.43-6.076,6.809c-1.195,0.541-2.345,1.201-3.459,1.898c-5.13,3.201-10.601,5.459-16.645,6.217
			c-3.045,0.381-6.054,0.959-9.152,0.281c-5.373-1.176-7.848-4.875-6.747-10.301c0.054-0.266,0.074-0.539,0.11-0.809
			C456.688,78.373,456.597,78.316,456.506,78.26z M386.784,83.76c0.183-0.027,0.629-0.043,1.044-0.168
			c4.437-1.324,8.453-3.48,12.152-6.236c0.467-0.348,0.861-0.844,1.172-1.344c0.77-1.236,0.633-2.547-0.021-3.762
			c-0.578-1.074-1.674-1.092-2.741-1.016c-0.356,0.025-0.719,0.053-1.063,0.143c-4.929,1.27-8.83,4.129-12.126,7.902
			c-0.309,0.354-0.533,0.797-0.73,1.229C383.652,82.299,384.577,83.746,386.784,83.76z M433.995,69.643
			c1.759-0.146,3.275-0.621,4.695-1.352c3.76-1.934,7.011-4.563,10.004-7.52c1.222-1.207,2.393-2.471,3.052-4.1
			c0.245-0.607,0.381-1.268-0.093-1.811c-0.467-0.535-1.099-0.35-1.675-0.17c-1.901,0.592-3.508,1.715-5.012,2.963
			c-3.545,2.941-6.442,6.531-9.664,9.797C434.756,68.006,434.285,68.67,433.995,69.643z"/>
		<path fill-rule="evenodd" clip-rule="evenodd" fill="#FFFFFF" d="M109.11,81.037c-4.706,2.443-9.542,4.602-14.435,6.641
			c-3.891,1.623-7.895,2.203-12.064,1.604c-1-0.145-1.945-0.484-2.709-1.17c-0.326-0.293-0.54-0.354-0.906-0.063
			c-7.484,5.992-15.244,11.693-20.947,19.586c-2.574,3.563-5.15,7.121-7.852,10.59c-1.184,1.52-2.45,2.949-4.113,3.975
			c-2.133,1.316-4.384,1.67-6.559,0.309c-2.119-1.328-2.416-3.566-2.22-5.838c0.386-4.482,2.45-8.301,4.962-11.9
			c5.542-7.941,11.704-15.395,18.071-22.682c0.828-0.947,1.716-1.867,2.261-3.17c-1.145,0.104-1.931,0.732-2.734,1.27
			c-3.484,2.332-7.013,4.592-10.679,6.635c-3.943,2.195-8.128,3.041-12.589,2.229c-5.389-0.98-7.089-3.881-6.249-9.346
			c0.636-4.139,2.661-7.734,4.796-11.262c2.549-4.209,5.43-8.188,8.442-12.072c0.243-0.314,0.476-0.635,0.795-1.061
			c-0.407-0.16-0.757-0.293-1.102-0.438c-1.067-0.449-2.122-0.928-3.076-1.596c-1.12-0.781-2.197-1.686-1.776-3.217
			c0.389-1.418,1.764-1.607,2.98-1.822c1.901-0.336,3.822-0.314,5.73-0.055c0.8,0.109,1.301-0.117,1.82-0.754
			c4.695-5.764,9.39-11.535,14.764-16.697c3.296-3.166,6.938-5.826,11.568-6.619c2.871-0.492,5.68,0.021,8.196,1.514
			c2.677,1.588,3.736,4.559,3.009,7.783c-1.334,5.916-4.912,10.355-9.244,14.361c-5.104,4.719-11.187,7.092-17.988,7.879
			c-1.15,0.135-2.322,0.486-3.447,0.373c-3.273-0.336-5.34,1.541-7.376,3.637c-5.178,5.33-8.147,11.857-10.207,18.857
			c-0.804,2.734,0.624,4.248,3.476,3.914c3.934-0.463,7.389-2.242,10.775-4.098c5.736-3.143,11.386-6.445,17.088-9.652
			c1.642-0.924,3.391-1.607,5.281-1.832c0.512-0.061,1.043-0.094,1.549-0.021c2.02,0.285,2.745,1.373,2.041,3.283
			c-1.352,3.664-3.697,6.719-6.355,9.494C68,83.877,63.621,87.863,59.67,92.277c-4.74,5.297-9.064,10.848-11.724,17.523
			c-0.294,0.738-0.513,1.508-0.751,2.268c-0.092,0.297-0.263,0.658,0.058,0.887c0.374,0.266,0.677-0.064,0.952-0.273
			c1.09-0.824,2.014-1.82,2.902-2.85c2.402-2.785,4.781-5.588,7.203-8.355c3.455-3.945,7.071-7.73,11.393-10.758
			c6.079-4.256,11.389-9.377,16.596-14.627c2.615-2.637,5.376-5.131,8.085-7.676c0.963-0.904,1.993-1.732,3.142-2.393
			c1.386-0.795,2.887-0.688,4.008,0.254c1.385,1.164,1.604,2.094,0.934,3.941c-0.811,2.238-2.361,3.855-4.323,5.117
			c-2.351,1.514-4.721,3.002-6.911,4.746c-0.623,0.496-1.205,1.049-1.76,1.621c-0.475,0.488-0.689,1.127-0.397,1.766
			c0.284,0.621,0.954,0.744,1.545,0.719c0.79-0.035,1.586-0.178,2.359-0.357c2.071-0.48,4.03-1.297,5.894-2.287
			c4.933-2.625,10.021-4.916,15.084-7.266c1.67-0.773,3.051-1.859,3.93-3.537c0.352-0.672,0.902-1.223,1.539-1.656
			c1.27-0.859,2.55-0.479,2.872,1c0.543,2.496,0.172,4.883-1.61,6.826c-1.133,1.232-2.447,2.295-3.66,3.457
			c-0.548,0.525-1.115,1.102-1.14,1.908c-0.062,2.082,0.755,3.104,3.083,2.867c3.505-0.354,6.89-1.24,10.227-2.393
			c1.809-0.623,2.893-1.369,2.354-3.516c-0.227-0.908,0.086-1.906,0.326-2.836c0.511-1.977,2.023-2.898,3.988-2.471
			c0.561,0.121,0.928,0.482,1.132,0.975c0.272,0.662,0.537,1.336,0.694,2.029c0.381,1.672,0.355,1.684,2.025,1.092
			c5.719-2.023,11.313-4.334,16.679-7.184c2.926-1.553,5.412-3.5,6.767-6.662c0.463-1.082,1.385-1.557,2.637-1.389
			c1.291,0.174,2.116,0.734,2.446,2.063c0.473,1.9,0.107,3.561-1.177,5.02c-1.199,1.361-2.591,2.48-4.208,3.32
			c-3.277,1.705-6.366,3.65-8.81,6.506c-1.322,1.545-2.234,3.314-3.033,5.133c-1.549,3.523-4.4,4.973-8.016,5.371
			c-1.805,0.197-3.574,0.197-5.307-0.447c-1.78-0.66-3.287-1.676-4.221-3.355c-0.385-0.691-0.72-0.686-1.386-0.416
			c-5.86,2.354-11.897,3.9-18.271,3.814c-1.363-0.02-2.717-0.117-4.014-0.578c-2.271-0.807-3.144-2.789-2.133-4.98
			c0.483-1.045,1.118-2.021,1.685-3.029c0.03-0.094,0.111-0.244,0.081-0.271C109.301,80.813,109.188,80.896,109.11,81.037z
			 M54.998,50.025c1.879,0.156,3.467-0.021,5.053-0.113c3.973-0.229,7.689-1.252,11.031-3.5c3.824-2.574,6.723-5.887,8.166-10.307
			c1.111-3.398-1.393-6.039-4.883-5.27c-2.939,0.648-5.314,2.289-7.481,4.287c-3.192,2.941-5.651,6.498-8.269,9.918
			C57.411,46.613,56.285,48.246,54.998,50.025z M150.112,78.865c-3.452,1.381-6.903,2.764-10.358,4.139
			c-0.529,0.209-0.368,0.5-0.158,0.838c0.511,0.828,1.278,1.014,2.172,0.887C145.506,84.197,147.983,81.816,150.112,78.865z"/>
		<path fill-rule="evenodd" clip-rule="evenodd" fill="#FFFFFF" d="M192.086,57.863c3.418-0.387,6.547-0.736,9.675-1.096
			c6.903-0.797,13.818-1.482,20.743-2.078c7.202-0.621,14.41-1.191,21.637-1.361c10.949-0.256,21.903-0.359,32.825,0.686
			c2.65,0.254,5.127,1.111,7.323,3.004c-1.838,0.779-3.642,0.986-5.445,0.736c-5.409-0.746-10.829-0.711-16.267-0.506
			c-5.07,0.191-10.144,0.307-15.218,0.377c-8.512,0.119-16.994,0.658-25.461,1.543c-7.666,0.801-15.342,1.514-23.034,2.016
			c-2.073,0.135-4.14,0.354-6.212,0.49c-2.727,0.178-4.93,1.385-6.902,3.219c-3.643,3.389-6.737,7.266-9.971,11.02
			c-1.277,1.482-2.673,2.865-3.734,4.527c-0.582,0.914-1.097,1.854-1.336,2.92c-0.46,2.061,0.918,3.893,3.033,3.99
			c1.956,0.09,3.781-0.547,5.604-1.129c3.579-1.145,7.028-2.561,10.265-4.52c1.178-0.713,2.059-1.451,2.799-2.662
			c2.012-3.299,5.021-5.664,8.177-7.801c3.552-2.406,7.266-4.502,11.612-5.127c1.717-0.248,3.438-0.189,5.12,0.217
			c2.647,0.639,4.147,2.625,4.171,5.408c0.015,1.826,0.015,1.84,1.761,1.859c0.681,0.008,1.017,0.332,1.155,0.967
			c0.262,1.207-0.071,2.297-0.664,3.32c-0.767,1.322-1.77,2.465-2.842,3.545c-0.515,0.52-1.105,1.023-0.813,1.848
			c0.29,0.822,1.06,1.045,1.818,1.178c3.409,0.598,6.579-0.094,9.543-1.83c0.585-0.344,1.149-0.719,1.723-1.082
			c0.229-0.145,0.509-0.242,0.507-0.596c-0.008-2.053,1.443-3.197,2.77-4.408c1.3-1.188,2.61-2.367,3.633-3.813
			c0.575-0.813,1.082-1.674,1.625-2.51c0.456-0.703,0.885-1.43,1.391-2.094c0.963-1.268,2.148-2.227,3.863-1.891
			c1.592,0.311,2.124,1.652,2.616,2.992c0.791,2.154,0.259,3.979-1.292,5.596c-1.228,1.283-2.597,2.361-4.188,3.158
			c-1.26,0.629-2.236,1.539-2.699,2.906c-0.568,1.68,0.376,3.096,2.154,3.16c1.771,0.063,3.372-0.613,4.896-1.406
			c3.566-1.857,6.661-4.395,9.72-6.965c1.168-0.982,1.809-2.285,1.999-3.838c0.155-1.266,0.616-2.461,1.05-3.666
			c0.781-2.172,3.816-3.756,6.23-2.188c0.232,0.152,0.488,0.27,0.733,0.404c2.772,1.527,3.179,2.713,1.934,5.639
			c-0.476,1.117-1.167,2.084-2.015,2.949c-0.841,0.859-1.58,1.793-2.08,2.906c-0.443,0.988-0.32,1.803,0.441,2.613
			c2.41,2.566,7.766,2.668,10.264,0.168c0.158-0.158,0.206-0.324,0.26-0.514c0.496-1.762,1.637-3.088,2.953-4.277
			c3.185-2.875,6.44-5.646,10.715-6.801c2.688-0.725,4.322,0.334,4.807,3.092c0.271,1.543-0.359,2.674-1.856,3.158
			c-0.907,0.295-1.845,0.527-2.785,0.688c-2.232,0.381-4.138,1.416-5.861,2.822c-0.896,0.732-1.729,1.617-1.231,2.863
			c0.512,1.277,1.495,2.16,2.965,2.303c0.979,0.094,1.961-0.031,2.774-0.564c2.046-1.344,4.322-2.23,6.45-3.404
			c0.904-0.5,1.801-1.057,2.583-1.727c1.913-1.633,1.92-4.387-0.017-5.949c-1.239-0.998-1.716-2.164-1.335-3.682
			c0.372-1.479,1.491-2.125,2.87-2.352c1.252-0.207,2.513-0.529,3.797-0.193c3.072,0.803,4.489,3.398,3.804,7.092
			c-0.223,1.197-0.911,2.377-0.06,3.561c1.1,1.527,2.695,2.336,4.441,2.861c0.846,0.256,1.714,0.252,2.604,0.063
			c1.612-0.346,2.38-0.006,2.646,1.037c0.331,1.293-0.555,3.035-1.758,3.418c-3.046,0.967-5.976,0.746-8.784-0.844
			c-1.005-0.57-2.045-1.061-3.196-1.313c-0.975-0.211-1.779-0.01-2.582,0.561c-2.933,2.084-5.972,3.99-9.296,5.404
			c-2.038,0.867-4.158,1.371-6.369,1.529c-3.046,0.217-5.201-1.262-6.799-3.658c-0.44-0.66-0.692-0.746-1.355-0.371
			c-2.943,1.672-6.086,2.432-9.437,1.615c-2.503-0.609-4.656-1.82-6.084-4.105c-0.729-1.164-1.482-1.332-2.617-0.57
			c-1.391,0.936-2.714,1.973-4.054,2.98c-3.222,2.424-6.765,4.051-10.832,4.367c-4.188,0.326-7.415-1.332-9.836-4.762
			c-3.589,3.041-7.822,4.498-12.535,4.461c-3.588-0.029-6.795-1.053-8.885-4.262c-0.354-0.545-0.743-0.338-1.127-0.219
			c-1.758,0.545-3.433,1.279-5.054,2.154c-2.739,1.48-5.626,2.426-8.793,2.381c-2.913-0.039-5.116-1.629-5.979-4.41
			c-0.08-0.26-0.154-0.52-0.26-0.873c-0.664,0.512-1.284,1-1.916,1.475c-5.707,4.275-12.11,6.117-19.219,5.48
			c-0.238-0.021-0.476-0.053-0.712-0.088c-5.381-0.809-6.784-5.246-5.255-9.678c1.547-4.484,4.543-7.818,7.982-10.869
			c2.275-2.02,4.43-4.158,6.267-6.596c0.186-0.246,0.344-0.512,0.573-0.857c-1.355-0.145-2.549,0.244-3.765,0.26
			c-0.907,0.014-1.665-0.041-1.882-1.162c-0.211-1.088-0.079-1.986,0.99-2.549c1.012-0.531,2.131-0.654,3.232-0.83
			c1.301-0.205,2.604-0.4,3.912-0.553c0.994-0.117,1.741-0.574,2.48-1.254c6.268-5.756,12.374-11.697,19.088-16.947
			c1.793-1.402,3.689-2.674,5.963-3.215c1.359-0.322,1.89,0.176,1.549,1.541c-0.313,1.25-1.148,2.197-2.072,3.023
			c-4.324,3.869-8.456,7.934-12.522,12.066C194.946,54.855,193.614,56.271,192.086,57.863z M213.162,71.225
			c-0.161,0.023-0.682,0.055-1.182,0.176c-4.625,1.125-8.247,3.871-11.505,7.186c-0.617,0.629-1.096,1.369-1.406,2.205
			c-0.57,1.537,0.263,2.85,1.89,2.957c0.558,0.035,1.113-0.002,1.658-0.168c4.393-1.33,8.363-3.486,12.051-6.184
			c0.55-0.402,0.984-0.936,1.307-1.543C217.144,73.654,215.844,71.207,213.162,71.225z"/>
		<path fill-rule="evenodd" clip-rule="evenodd" fill="#FFFFFF" d="M357.444,109.775c1.163-3.889,2.259-7.555,3.355-11.221
			c0.08-0.266,0.16-0.533,0.255-0.797c0.098-0.27,0.31-0.367,0.571-0.271c0.263,0.096,0.174,0.307,0.114,0.496
			c-0.048,0.152-0.082,0.311-0.129,0.463c-1.2,3.93-2.395,7.861-3.619,11.783c-0.101,0.32-0.015,0.906-0.623,0.854
			c-0.489-0.043-0.418-0.533-0.501-0.842c-0.908-3.35-1.792-6.707-2.684-10.063c-0.098-0.365-0.206-0.725-0.396-1.389
			c-0.797,2.639-1.507,4.988-2.216,7.338c-0.428,1.414-0.843,2.832-1.293,4.238c-0.086,0.27-0.043,0.699-0.493,0.721
			c-0.549,0.027-0.475-0.48-0.554-0.771c-1.077-3.967-2.136-7.939-3.171-11.918c-0.071-0.277-0.479-0.756,0.06-0.898
			c0.583-0.154,0.535,0.469,0.626,0.809c0.898,3.354,1.775,6.711,2.658,10.068c0.102,0.385,0.199,0.771,0.317,1.23
			c0.301-0.225,0.315-0.523,0.396-0.795c1.038-3.521,2.081-7.041,3.127-10.561c0.098-0.328,0.092-0.783,0.576-0.787
			c0.582-0.004,0.503,0.547,0.594,0.887C355.421,102.086,356.402,105.83,357.444,109.775z"/>
		<path fill-rule="evenodd" clip-rule="evenodd" fill="#FFFFFF" d="M489.692,38.85c1.21-0.016,2.25,0.75,2.438,1.992
			c0.135,0.9,0.557,1.545,1.188,2.125c0.716,0.658,0.696,1.469-0.137,2.008c-1.039,0.674-2.193,1.15-3.425,1.324
			c-0.717,0.102-1.424-0.082-1.952-0.664c-0.776-0.854-1.558-1.703-2.33-2.563c-0.176-0.195-0.367-0.352-0.277-0.709
			C485.532,41.045,488.278,38.869,489.692,38.85z"/>
		<path fill-rule="evenodd" clip-rule="evenodd" fill="#FFFFFF" d="M416.44,109.445c-0.423,0.381-0.642,0.592-0.874,0.785
			c-1.78,1.482-4.335,1.186-5.726-0.664c-1.402-1.863-1.39-4.896,0.027-6.734c1.597-2.072,4.101-2.166,6.491-0.244
			c0.537-0.207-0.071-1.189,0.537-1.078c0.69,0.127,0.226,0.885,0.23,1.332c0.03,2.717,0.063,5.438-0.05,8.148
			c-0.184,4.338-4.048,5.074-6.812,3.826c-0.209-0.096-0.652-0.113-0.458-0.533c0.196-0.43,0.468-0.059,0.693,0.01
			c0.305,0.092,0.59,0.248,0.896,0.332c2.767,0.756,4.774-0.629,5.038-3.479C416.478,110.674,416.44,110.193,416.44,109.445z
			 M416.472,106.199c0-0.502,0.013-0.861-0.002-1.221c-0.056-1.412-0.962-2.652-2.243-3.088c-1.219-0.416-2.69,0.004-3.584,1.02
			c-1.433,1.631-1.574,4.484-0.312,6.246c1.316,1.838,3.75,1.955,5.253,0.271C416.457,108.449,416.525,107.271,416.472,106.199z"/>
		<path fill-rule="evenodd" clip-rule="evenodd" fill="#FFFFFF" d="M478.817,109.488c-2.063,1.832-3.948,2.131-5.595,1.025
			c-1.847-1.24-2.55-4.055-1.621-6.49c0.734-1.924,2.509-3.008,4.524-2.801c1.059,0.109,1.862,0.654,2.563,1.389
			c0.089-0.045,0.174-0.061,0.223-0.113c0.271-0.287-0.229-1.066,0.452-0.984c0.519,0.063,0.17,0.686,0.171,1.037
			c0.011,2.797,0.067,5.598-0.062,8.389c-0.168,3.666-3.436,5.508-6.761,3.898c-0.213-0.104-0.669-0.107-0.522-0.506
			c0.193-0.525,0.511-0.057,0.772-0.012c0.076,0.014,0.144,0.068,0.218,0.096c1.499,0.521,3.007,0.693,4.323-0.381
			C478.888,112.906,478.942,111.318,478.817,109.488z M478.871,106.209c0-0.531,0.019-0.93-0.003-1.328
			c-0.073-1.338-0.978-2.576-2.223-2.977c-1.346-0.434-2.535-0.086-3.504,0.906c-1.584,1.621-1.701,4.758-0.282,6.521
			c1.314,1.635,3.575,1.713,5.027,0.199C478.833,108.545,478.936,107.34,478.871,106.209z"/>
		<path fill-rule="evenodd" clip-rule="evenodd" fill="#FFFFFF" d="M379.918,102.697c0-1.84-0.005-3.516,0.005-5.191
			c0.002-0.293-0.111-0.738,0.355-0.744c0.504-0.008,0.328,0.461,0.33,0.732c0.027,4.35,0.039,8.701,0.052,13.053
			c0,0.223,0.075,0.525-0.288,0.535c-0.369,0.01-0.274-0.301-0.307-0.52c-0.045-0.299,0.117-0.637-0.364-1.064
			c-0.139,0.227-0.24,0.506-0.434,0.689c-2.03,1.932-5.088,1.408-6.326-1.102c-0.904-1.836-0.865-3.727,0.034-5.539
			C374.315,100.844,377.155,100.463,379.918,102.697z M379.915,106.223c0-0.398,0.015-0.799-0.002-1.197
			c-0.068-1.572-1.021-2.824-2.423-3.197c-1.45-0.385-2.986,0.246-3.766,1.648c-0.976,1.758-1.017,3.596-0.129,5.393
			c0.633,1.279,1.711,2.014,3.183,1.916c1.416-0.092,2.313-0.943,2.874-2.205C379.992,107.816,379.899,107.016,379.915,106.223z"/>
		<path fill-rule="evenodd" clip-rule="evenodd" fill="#FFFFFF" d="M390.958,102.787c0-1.893-0.009-3.555,0.008-5.219
			c0.003-0.314-0.17-0.838,0.407-0.795c0.462,0.033,0.272,0.502,0.274,0.777c0.027,4.311,0.039,8.621,0.049,12.934
			c0.001,0.254,0.117,0.631-0.341,0.592c-0.348-0.031-0.223-0.355-0.247-0.572c-0.03-0.268-0.043-0.539-0.062-0.783
			c-0.323-0.105-0.399,0.127-0.525,0.254c-2.279,2.301-5.606,1.641-6.763-1.375c-0.628-1.637-0.561-3.297,0.179-4.889
			C385.253,100.875,388.325,100.385,390.958,102.787z M390.953,106.338c0-0.582,0.018-0.98-0.003-1.379
			c-0.08-1.514-1.008-2.723-2.37-3.111c-1.414-0.404-2.913,0.156-3.718,1.486c-1.097,1.813-1.136,3.717-0.191,5.594
			c0.62,1.232,1.678,1.936,3.095,1.859c1.471-0.078,2.388-0.951,2.949-2.27C391.044,107.746,390.924,106.947,390.953,106.338z"/>
		<path fill-rule="evenodd" clip-rule="evenodd" fill="#FFFFFF" d="M498.488,103.059c1.488-1.707,3.135-2.352,5.068-1.549
			c1.993,0.826,2.591,2.584,2.627,4.584c0.028,1.525-0.329,2.949-1.434,4.066c-1.685,1.701-4.063,1.559-6.331-0.473
			c0,1.588,0.017,3.037-0.012,4.484c-0.007,0.338,0.244,0.947-0.396,0.916c-0.503-0.025-0.278-0.576-0.28-0.883
			c-0.021-3.994-0.021-7.988-0.016-11.984c0-0.271-0.264-0.725,0.263-0.754c0.506-0.025,0.315,0.441,0.365,0.723
			C498.382,102.416,498.419,102.645,498.488,103.059z M505.518,105.963c-0.028-0.246-0.05-0.646-0.121-1.037
			c-0.375-2.047-1.856-3.313-3.703-3.178c-1.809,0.133-3.241,1.785-3.271,3.787c-0.011,0.719-0.034,1.439,0.021,2.154
			c0.108,1.424,1.109,2.559,2.557,2.977c1.341,0.387,2.752-0.102,3.594-1.264C505.302,108.424,505.498,107.293,505.518,105.963z"/>
		<path fill-rule="evenodd" clip-rule="evenodd" fill="#FFFFFF" d="M509.219,103.008c0.727-0.744,1.272-1.295,2.055-1.564
			c2.174-0.754,4.098,0.275,4.495,2.527c0.385,2.176,0.097,4.383,0.165,6.574c0.008,0.236,0.009,0.506-0.32,0.535
			c-0.467,0.043-0.353-0.32-0.37-0.572c-0.017-0.238-0.004-0.48-0.004-0.719c0-1.598,0.034-3.197-0.01-4.793
			c-0.058-2.033-1.14-3.268-2.768-3.25c-1.719,0.018-3.198,1.523-3.234,3.359c-0.034,1.717,0.002,3.436-0.018,5.152
			c-0.004,0.307,0.203,0.83-0.386,0.811c-0.498-0.016-0.294-0.486-0.295-0.754c-0.015-4.271-0.014-8.545-0.001-12.818
			c0.001-0.271-0.177-0.738,0.327-0.734c0.468,0.004,0.357,0.447,0.358,0.742C509.224,99.258,509.219,101.012,509.219,103.008z"/>
		<path fill-rule="evenodd" clip-rule="evenodd" fill="#FFFFFF" d="M435.059,102.975c0.45-0.424,0.714-0.715,1.018-0.953
			c2.228-1.75,5.093-0.709,5.556,2.066c0.355,2.135,0.082,4.305,0.143,6.457c0.007,0.236,0.01,0.504-0.32,0.535
			c-0.466,0.045-0.368-0.318-0.37-0.572c-0.009-1.357-0.005-2.715-0.005-4.072c0-0.439,0.011-0.879-0.002-1.318
			c-0.06-2.113-1.107-3.385-2.771-3.371c-1.767,0.014-3.216,1.549-3.241,3.477c-0.022,1.676,0.005,3.354-0.015,5.031
			c-0.004,0.307,0.204,0.828-0.382,0.814c-0.501-0.01-0.298-0.482-0.299-0.748c-0.014-4.273-0.014-8.545-0.001-12.818
			c0.001-0.271-0.179-0.736,0.321-0.74c0.474-0.004,0.362,0.441,0.364,0.736C435.063,99.252,435.059,101.008,435.059,102.975z"/>
		<path fill-rule="evenodd" clip-rule="evenodd" fill="#FFFFFF" d="M424.52,104.344c0-1.955,0.041-3.91-0.021-5.863
			c-0.023-0.748,0.27-0.986,0.929-1.035c0.995-0.07,1.989-0.16,2.983-0.018c1.891,0.273,3.114,1.48,3.304,3.242
			c0.205,1.902-0.735,3.531-2.437,4.227c-0.981,0.402-2.013,0.58-3.045,0.402c-0.924-0.16-1.064,0.207-1.028,1.004
			c0.057,1.273,0.033,2.553,0.002,3.828c-0.008,0.336,0.251,0.955-0.373,0.924c-0.595-0.031-0.293-0.637-0.299-0.969
			C424.503,108.172,424.52,106.258,424.52,104.344z M425.219,101.303c0,0.357,0,0.715,0,1.074c0.001,2.52,0.351,2.799,2.881,2.297
			c0.117-0.023,0.235-0.039,0.352-0.068c1.689-0.418,2.59-1.596,2.586-3.379c-0.003-1.734-0.854-2.783-2.6-3.207
			c-0.746-0.182-1.502-0.1-2.257-0.096c-0.762,0.006-1.04,0.348-0.976,1.111C425.27,99.787,425.219,100.547,425.219,101.303z"/>
		<path fill-rule="evenodd" clip-rule="evenodd" fill="#FFFFFF" d="M469.541,106.355c-0.132,3.768-3.314,6.031-6.396,4.551
			c-2.05-0.986-3.027-3.715-2.269-6.332c0.669-2.305,2.555-3.604,4.853-3.34C468.071,101.504,469.638,103.609,469.541,106.355z
			 M468.875,106.301c0.021-2.803-1.703-4.732-4.069-4.555c-1.994,0.15-3.439,1.98-3.504,4.438c-0.063,2.408,1.582,4.516,3.604,4.615
			c2.066,0.104,3.817-1.777,3.966-4.258C468.876,106.461,468.872,106.381,468.875,106.301z"/>
		<path fill-rule="evenodd" clip-rule="evenodd" fill="#FFFFFF" d="M448.38,111.344c-2.524-0.031-4.35-2.168-4.306-5.043
			c0.047-3.016,1.933-5.137,4.544-5.107c2.629,0.029,4.426,2.125,4.364,5.088C452.919,109.279,451.013,111.375,448.38,111.344z
			 M452.314,106.311c0.026-2.805-1.691-4.736-4.061-4.564c-1.962,0.143-3.373,1.875-3.509,4.309s1.533,4.639,3.593,4.746
			c2.107,0.109,3.888-1.848,3.976-4.371C452.314,106.391,452.313,106.35,452.314,106.311z"/>
		<path fill-rule="evenodd" clip-rule="evenodd" fill="#FFFFFF" d="M493.628,109.879c-0.887,0.85-1.799,1.457-2.996,1.467
			c-1.281,0.012-2.276-0.582-2.688-1.629c-0.45-1.145-0.072-2.549,0.937-3.35c1.087-0.861,2.395-1.125,3.722-1.1
			c1.116,0.02,1.131-0.527,0.976-1.342c-0.353-1.855-1.742-2.596-3.723-1.951c-0.302,0.098-0.587,0.246-0.876,0.379
			c-0.16,0.074-0.298,0.092-0.395-0.09c-0.098-0.182,0.005-0.318,0.14-0.396c1.081-0.627,2.246-0.85,3.459-0.537
			c1.114,0.287,1.728,1.092,1.968,2.195c0.354,1.623,0.127,3.27,0.186,4.902c0.024,0.68,0.035,1.359,0.038,2.039
			c0.001,0.215,0.157,0.529-0.178,0.604c-0.457,0.102-0.344-0.32-0.42-0.551C493.718,110.34,493.689,110.15,493.628,109.879z
			 M493.64,107.207c-0.241-0.383,0.465-1.289-0.436-1.379c-1.397-0.139-2.802,0.078-3.959,1.002
			c-0.823,0.656-1.065,1.898-0.586,2.83c0.509,0.992,1.39,1.262,2.421,1.102C492.761,110.498,493.638,109.293,493.64,107.207z"/>
		<path fill-rule="evenodd" clip-rule="evenodd" fill="#FFFFFF" d="M367.077,106.025c-0.958,0-1.917,0.035-2.872-0.01
			c-0.738-0.037-0.845,0.268-0.767,0.928c0.357,3.02,2.467,4.42,5.469,3.582c0.152-0.041,0.297-0.115,0.45-0.158
			c0.21-0.061,0.475-0.287,0.616,0.027c0.135,0.303-0.163,0.402-0.381,0.48c-2.536,0.904-5.732,0.563-6.647-2.83
			c-0.508-1.881-0.303-3.736,0.915-5.348c1.041-1.377,2.939-1.865,4.519-1.236c1.35,0.539,2.43,2.484,2.292,4.023
			c-0.047,0.525-0.333,0.547-0.722,0.543C368.992,106.02,368.034,106.025,367.077,106.025z M366.666,105.463
			c0.835,0,1.671-0.025,2.505,0.01c0.676,0.027,0.785-0.234,0.685-0.863c-0.295-1.842-1.405-2.938-3.042-2.9
			c-1.565,0.037-3.083,1.529-3.246,3.141c-0.052,0.51,0.154,0.625,0.594,0.617C364.996,105.453,365.831,105.463,366.666,105.463z"/>
		<path fill-rule="evenodd" clip-rule="evenodd" fill="#FFFFFF" d="M522.122,109.859c0.947-2.498,1.879-4.959,2.813-7.418
			c0.099-0.26,0.198-0.521,0.318-0.773c0.099-0.207,0.289-0.277,0.501-0.209c0.303,0.098,0.157,0.314,0.086,0.479
			c-1.676,3.832-2.896,7.863-5.011,11.5c-0.428,0.736-1.065,1.301-1.818,1.699c-0.246,0.129-0.576,0.545-0.821,0.168
			c-0.292-0.447,0.3-0.424,0.497-0.602c0.442-0.4,0.962-0.725,1.355-1.164c1.214-1.361,1.798-2.75,0.831-4.635
			c-1.051-2.049-1.781-4.266-2.614-6.422c-0.117-0.305-0.628-0.777-0.116-0.99c0.59-0.244,0.62,0.461,0.769,0.824
			c0.938,2.287,1.854,4.584,2.774,6.877C521.774,109.41,521.784,109.67,522.122,109.859z"/>
		<path fill-rule="evenodd" clip-rule="evenodd" fill="#FFFFFF" d="M399.549,102.902c0.848-0.844,1.597-1.479,2.634-1.645
			c1.944-0.311,3.5,0.688,3.885,2.658c0.433,2.211,0.108,4.461,0.188,6.691c0.009,0.26-0.056,0.488-0.383,0.477
			c-0.357-0.012-0.308-0.297-0.309-0.52c-0.006-1.598-0.004-3.195-0.005-4.793c0-0.318,0.015-0.641-0.009-0.957
			c-0.146-1.941-1.216-3.094-2.835-3.068c-1.685,0.027-3.129,1.486-3.167,3.277c-0.038,1.756-0.002,3.514-0.017,5.271
			c-0.002,0.283,0.162,0.74-0.309,0.768c-0.607,0.037-0.369-0.498-0.371-0.785c-0.021-2.676-0.019-5.352-0.006-8.027
			c0.001-0.271-0.285-0.732,0.224-0.777c0.462-0.041,0.352,0.426,0.395,0.719C399.486,102.346,399.501,102.502,399.549,102.902z"/>
		<path fill-rule="evenodd" clip-rule="evenodd" fill="#FFFFFF" d="M459.256,110.727c-1.433,1.086-3.016,0.475-3.293-1.17
			c-0.293-1.742-0.075-3.51-0.127-5.264c-0.011-0.359-0.047-0.727,0.007-1.076c0.152-0.986-0.209-1.414-1.222-1.24
			c-0.144,0.025-0.322,0.021-0.419-0.217c0.028-0.059,0.076-0.24,0.121-0.24c1.042,0.018,1.802-0.215,1.531-1.527
			c-0.055-0.262,0.16-0.461,0.436-0.455c0.182,0.004,0.245,0.201,0.213,0.357c-0.379,1.801,0.857,1.539,1.927,1.553
			c0.293,0.002,0.853-0.262,0.841,0.301c-0.008,0.426-0.515,0.217-0.791,0.227c-1.968,0.066-1.968,0.057-1.968,2.027
			c0,1.318-0.001,2.637,0,3.955C456.513,110.359,456.828,110.699,459.256,110.727z"/>
		<path fill-rule="evenodd" clip-rule="evenodd" fill="#FFFFFF" d="M483.731,102.959c0.792-0.951,1.463-1.699,2.563-1.75
			c0.199-0.01,0.437-0.025,0.477,0.234c0.045,0.287-0.205,0.252-0.391,0.307c-1.726,0.516-2.532,1.576-2.588,3.521
			c-0.047,1.637,0,3.275-0.023,4.914c-0.005,0.311,0.211,0.855-0.315,0.871c-0.681,0.021-0.354-0.596-0.357-0.91
			c-0.034-2.637-0.03-5.273-0.025-7.91c0.001-0.275-0.255-0.744,0.252-0.76c0.503-0.016,0.239,0.479,0.308,0.748
			C483.667,102.373,483.674,102.527,483.731,102.959z"/>
		<path fill-rule="evenodd" clip-rule="evenodd" fill="#FFFFFF" d="M394.999,106.293c0-1.398-0.007-2.797,0.007-4.195
			c0.002-0.242-0.151-0.621,0.305-0.639c0.41-0.016,0.389,0.305,0.389,0.588c-0.001,2.799,0.001,5.596-0.004,8.395
			c-0.001,0.262,0.074,0.625-0.338,0.637c-0.55,0.016-0.344-0.445-0.348-0.707C394.987,109.012,394.999,107.652,394.999,106.293z"/>
		<path fill-rule="evenodd" clip-rule="evenodd" fill="#FFFFFF" d="M395.97,98.611c-0.027,0.408-0.159,0.732-0.611,0.756
			c-0.388,0.021-0.579-0.219-0.624-0.584c-0.052-0.418,0.119-0.732,0.532-0.803C395.72,97.904,395.879,98.248,395.97,98.611z"/>
		<path fill-rule="evenodd" clip-rule="evenodd" fill="#FFFFFF" d="M109.11,81.037c0.078-0.141,0.19-0.225,0.327-0.1
			c0.03,0.027-0.051,0.178-0.081,0.271C109.274,81.152,109.192,81.094,109.11,81.037z"/>
	</g>
	<polyline fill-rule="evenodd" clip-rule="evenodd" fill="none" stroke="#FFFFFF" stroke-width="2" stroke-miterlimit="10" points="
		1,25.5 1,1 206.334,1 	"/>
	<polyline fill-rule="evenodd" clip-rule="evenodd" fill="none" stroke="#FFFFFF" stroke-width="2" stroke-miterlimit="10" points="
		565.668,124.5 565.668,149 337.334,149 	"/>
</g>
<g>
</g>
<g>
</g>
<g>
</g>
<g>
</g>
<g>
</g>
<g>
</g>
<g>
</g>
<g>
</g>
<g>
</g>
<g>
</g>
<g>
</g>
<g>
</g>
<g>
</g>
<g>
</g>
<g>
</g>
</svg>
