<?xml version="1.0" encoding="utf-8"?>
<!-- Generator: Adobe Illustrator 16.0.0, SVG Export Plug-In . SVG Version: 6.00 Build 0)  -->
<!DOCTYPE svg PUBLIC "-//W3C//DTD SVG 1.1//EN" "http://www.w3.org/Graphics/SVG/1.1/DTD/svg11.dtd">
<svg version="1.1" id="Layer_1" xmlns="http://www.w3.org/2000/svg" xmlns:xlink="http://www.w3.org/1999/xlink" x="0px" y="0px"
	 width="94.014px" height="32.629px" viewBox="0 0 94.014 32.629" enable-background="new 0 0 94.014 32.629" xml:space="preserve">
<g>
	<path fill="#555555" d="M7.182,2.333c-0.499,0-0.88,0.121-1.237,0.393C5.75,2.875,5.581,3.055,5.441,3.262
		C5.146,2.684,4.583,2.333,3.927,2.333c-0.658,0-1.186,0.254-1.574,0.755L2.326,2.569C2.323,2.503,2.268,2.451,2.201,2.451H1.366
		c-0.035,0-0.068,0.015-0.092,0.04C1.25,2.517,1.238,2.551,1.241,2.586c0.03,0.396,0.042,0.818,0.042,1.412V7.83
		c0,0.069,0.056,0.125,0.125,0.125h0.933c0.069,0,0.125-0.056,0.125-0.125V4.66c0-0.159,0.023-0.305,0.071-0.427
		C2.669,3.815,3.059,3.365,3.6,3.365c0.608,0,0.972,0.493,0.972,1.318V7.83c0,0.069,0.056,0.125,0.125,0.125H5.63
		c0.069,0,0.125-0.056,0.125-0.125V4.584c0-0.146,0.025-0.309,0.068-0.436c0.135-0.39,0.5-0.783,1.011-0.783
		c0.839,0,1.015,0.811,1.015,1.49V7.83c0,0.069,0.056,0.125,0.125,0.125h0.933c0.069,0,0.125-0.056,0.125-0.125V4.736
		C9.032,2.965,8.076,2.333,7.182,2.333z"/>
	<path fill="#555555" d="M14.922,6.568V4.603c0-1.035-0.368-2.27-2.123-2.27c-0.664,0-1.317,0.177-1.792,0.485
		c-0.048,0.031-0.069,0.091-0.05,0.145l0.216,0.634c0.012,0.037,0.041,0.065,0.078,0.078c0.036,0.013,0.078,0.007,0.109-0.014
		c0.354-0.233,0.84-0.373,1.298-0.373c0.705,0,1.064,0.362,1.069,1.075c-2.038,0.018-3.159,0.754-3.159,2.077
		c0,0.812,0.595,1.634,1.731,1.634c0.606,0,1.166-0.234,1.544-0.637l0.046,0.406c0.007,0.063,0.061,0.111,0.124,0.111h0.87
		c0.002,0,0.004,0,0.006,0c0.069,0,0.125-0.056,0.125-0.125c0-0.021-0.005-0.041-0.015-0.059C14.949,7.464,14.922,7.06,14.922,6.568
		z M12.552,7.118c-0.487,0-0.777-0.294-0.777-0.785c0-0.704,0.655-1.062,1.948-1.062l0.027,0.001v0.789
		c0,0.075-0.018,0.174-0.047,0.263C13.578,6.69,13.201,7.118,12.552,7.118z"/>
	<path fill="#555555" d="M21.648,6.474V0.125C21.648,0.056,21.592,0,21.523,0h-0.957c-0.069,0-0.125,0.056-0.125,0.125v2.783
		c-0.341-0.365-0.871-0.575-1.48-0.575c-0.625,0-1.213,0.245-1.655,0.69c-0.537,0.541-0.83,1.342-0.824,2.256
		c0,1.619,0.998,2.795,2.372,2.795c0.696,0,1.32-0.295,1.705-0.788l0.026,0.55c0.003,0.066,0.058,0.119,0.125,0.119h0.857
		c0.002,0,0.004,0,0.006,0c0.069,0,0.125-0.056,0.125-0.125c0-0.018-0.004-0.034-0.01-0.05C21.662,7.486,21.648,7.036,21.648,6.474z
		 M19.125,7.053c-1.052,0-1.425-0.978-1.425-1.815c0-1.141,0.582-1.906,1.448-1.906c0.706,0,1.14,0.507,1.258,1.013
		c0.024,0.092,0.039,0.231,0.039,0.372v0.909c0,0.155-0.012,0.274-0.039,0.386C20.252,6.634,19.738,7.053,19.125,7.053z"/>
	<path fill="#555555" d="M25.843,2.333c-1.525,0-2.591,1.216-2.591,2.957c0,1.691,1.063,2.784,2.708,2.784
		c0.668,0,1.29-0.12,1.798-0.348c0.055-0.024,0.084-0.085,0.07-0.143l-0.161-0.686c-0.008-0.036-0.032-0.066-0.065-0.083
		C27.568,6.8,27.53,6.799,27.495,6.813c-0.3,0.13-0.701,0.263-1.405,0.263c-0.482,0-1.587-0.156-1.67-1.573h3.558
		c0.064,0,0.117-0.048,0.124-0.111l0.006-0.05c0.012-0.101,0.028-0.237,0.028-0.409C28.136,3.732,27.536,2.333,25.843,2.333z
		 M25.766,3.267c0.343,0,0.62,0.104,0.822,0.311c0.299,0.305,0.363,0.75,0.375,0.991h-2.517C24.547,4.029,24.915,3.267,25.766,3.267
		z"/>
	<path fill="#555555" d="M35.551,2.333c-0.706,0-1.292,0.254-1.687,0.723V0.125C33.864,0.056,33.808,0,33.739,0h-0.947
		c-0.069,0-0.125,0.056-0.125,0.125v6.349c0,0.494-0.022,1.035-0.042,1.349c-0.002,0.034,0.01,0.068,0.034,0.094
		c0.023,0.024,0.056,0.039,0.091,0.039h0.826c0.067,0,0.122-0.053,0.125-0.119l0.026-0.534c0.395,0.513,0.958,0.772,1.681,0.772
		c1.195,0,2.481-0.919,2.481-2.935c0.006-0.886-0.27-1.656-0.778-2.168C36.697,2.554,36.157,2.333,35.551,2.333z M35.247,3.343
		c0.993,0,1.437,0.918,1.437,1.827c0,1.168-0.564,1.894-1.472,1.894c-0.621,0-1.135-0.402-1.308-1.014
		c-0.019-0.1-0.04-0.215-0.04-0.325V4.779c0-0.106,0.019-0.206,0.036-0.293l0.011-0.063C34.086,3.777,34.622,3.343,35.247,3.343z"/>
	<path fill="#555555" d="M43.888,2.505c-0.023-0.033-0.062-0.054-0.103-0.054h-1.01c-0.054,0-0.101,0.034-0.119,0.085l-1.04,3.082
		c-0.084,0.245-0.16,0.498-0.229,0.73c-0.068-0.225-0.149-0.473-0.232-0.711l-1.148-3.104c-0.02-0.055-0.078-0.094-0.133-0.08
		h-1.027c-0.042,0-0.08,0.021-0.104,0.055s-0.028,0.078-0.013,0.117l1.941,4.837c0.039,0.103,0.058,0.171,0.058,0.203
		c0,0.028-0.03,0.098-0.065,0.179c-0.178,0.401-0.465,0.781-0.771,1.02c-0.227,0.192-0.515,0.354-0.792,0.441
		c-0.065,0.021-0.101,0.09-0.082,0.155l0.239,0.804c0.016,0.054,0.065,0.089,0.12,0.089c0.007,0,0.015-0.001,0.022-0.002
		c0.148-0.026,0.674-0.151,1.231-0.646c0.636-0.552,1.1-1.395,1.837-3.339l1.432-3.745C43.916,2.582,43.911,2.539,43.888,2.505z"/>
</g>
<g>
	<path fill="#555555" d="M92.347,16.229c-0.661-2.842-3.172-4.796-6.116-4.796c-3.421,0-6.293,2.659-6.293,6.292
		c0,3.564,2.872,6.295,6.293,6.295c2.707,0,5.046-1.697,5.921-4.158l0.001,0.006c0,0,0.607-1.174,1.861-1.857l0,0v-0.225
		C93.131,17.303,92.592,16.606,92.347,16.229z M86.23,22.973c-2.979,0-5.053-2.465-5.053-5.248c0-2.854,2.074-5.247,5.053-5.247
		c2.995,0,5.052,2.376,5.052,5.247C91.282,20.508,89.226,22.973,86.23,22.973z"/>
	<path fill="#555555" d="M11.307,12.426c-0.975-0.639-2.074-0.993-3.351-0.993c-3.164,0-5.445,1.891-6.169,4.482
		c-0.142,0.251-0.712,1.164-1.785,1.751H0l0,0v0.223c1.157,0.633,1.757,1.674,1.843,1.83c0.779,2.498,3.025,4.301,6.113,4.301
		c1.259,0,2.357-0.373,3.333-0.994l0.921,0.994h0.195v-3.439h-0.212c-0.833,1.398-2.234,2.393-4.343,2.393
		c-2.995,0-5.122-2.215-5.122-5.248c0-3.03,2.127-5.247,5.122-5.247c2.109,0,3.511,0.993,4.343,2.393v0.001h0.212v-3.439H12.21
		L11.307,12.426z"/>
	<path fill="#555555" d="M20.95,11.433c-3.422,0-6.294,2.659-6.294,6.292c0,3.564,2.872,6.295,6.294,6.295
		c3.438,0,6.292-2.73,6.292-6.295C27.242,14.092,24.388,11.433,20.95,11.433z M20.95,22.973c-2.979,0-5.053-2.465-5.053-5.248
		c0-2.854,2.074-5.247,5.053-5.247c2.994,0,5.051,2.376,5.051,5.247C26.001,20.508,23.944,22.973,20.95,22.973z"/>
	<path fill="#555555" d="M32.805,23.557l-1.453-0.725V12.709h2.181c1.648,0,2.835,0.816,2.835,2.377
		c0,1.577-1.187,2.391-2.835,2.391h-1.632v0.248l5.07,6.027h2.304v-0.195l-1.631-0.85l-3.846-4.271
		c1.844-0.055,3.793-1.26,3.793-3.333c0-2.057-1.648-3.403-3.705-3.403h-5.033v0.194l1.382,0.744v10.175l-1.382,0.744v0.195h3.952
		V23.557z"/>
	<path fill="#555555" d="M47.798,20.758c0-1.721-1.116-2.57-2.536-3.191c-2.215-0.977-3.35-1.489-3.35-2.997
		c0-1.205,0.958-2.056,2.269-2.056c1.152,0,2.304,0.566,2.926,1.47v0.001h0.176v-1.611c-0.602-0.444-1.684-0.941-3.12-0.941
		c-1.861,0-3.457,1.277-3.457,3.157c0,1.682,0.905,2.586,2.304,3.19c2.767,1.188,3.599,1.648,3.599,3.102
		c0,1.047-0.762,2.074-2.339,2.074c-1.418,0-2.694-0.674-3.403-1.896h-0.195v1.684c0.833,0.781,2.092,1.277,3.439,1.277
		C46.574,24.02,47.798,22.424,47.798,20.758z"/>
	<path fill="#555555" d="M53.202,23.557l-1.365-0.744h-0.088l1.24-3.066h4.822l1.276,3.086l-1.365,0.725v0.195h3.847v-0.195
		l-1.348-0.955L55.56,11.415h-0.212l-4.681,11.167l-1.364,0.975v0.195h3.899V23.557z M55.365,13.809l2.039,4.946h-4.025
		L55.365,13.809z"/>
	<path fill="#555555" d="M67.861,18.436c1.843-0.055,3.793-1.26,3.793-3.333c0-2.057-1.648-3.403-3.704-3.403h-5.034v0.194
		l1.382,0.744v10.175l-1.382,0.744v0.195h3.952v-0.195l-1.453-0.725V12.709h2.181c1.648,0,2.835,0.816,2.835,2.377
		c0,1.577-1.187,2.391-2.835,2.391h-1.631v0.248l5.069,6.027h2.304v-0.195l-1.63-0.85L67.861,18.436z"/>
	<polygon fill="#555555" points="74.558,11.894 75.94,12.638 75.94,22.813 74.558,23.557 74.558,23.752 78.424,23.752 
		78.424,23.557 77.058,22.813 77.058,12.638 78.424,11.894 78.424,11.699 74.558,11.699 	"/>
	<path fill="#555555" d="M35.258,31.407H32.74v-1.043h2.116c0.181,0,0.228-0.086,0.228-0.229V29.52c0-0.143-0.046-0.229-0.228-0.229
		H32.74v-0.859h2.384c0.181,0,0.229-0.088,0.229-0.23v-0.656c0-0.141-0.048-0.229-0.229-0.229h-3.402
		c-0.181,0-0.228,0.088-0.228,0.229v4.736c0,0.143,0.047,0.23,0.228,0.23h3.536c0.182,0,0.229-0.088,0.229-0.23v-0.646
		C35.488,31.493,35.44,31.405,35.258,31.407z"/>
	<path fill="#555555" d="M38.887,29.497c-0.314-0.127-1.475-0.301-1.475-0.781c0-0.355,0.434-0.459,0.694-0.459
		c0.236,0,0.521,0.072,0.671,0.215c0.095,0.094,0.134,0.156,0.165,0.236c0.04,0.102,0.063,0.213,0.213,0.213h0.773
		c0.182,0,0.229-0.031,0.229-0.223c0-1.041-1.098-1.498-2.1-1.498c-0.987,0.039-1.917,0.545-1.917,1.57
		c0,1.002,0.734,1.318,1.531,1.57c0.67,0.215,1.373,0.223,1.373,0.664s-0.347,0.535-0.773,0.535c-0.292,0-0.616-0.068-0.774-0.26
		c-0.102-0.117-0.142-0.221-0.15-0.322c-0.015-0.199-0.102-0.223-0.284-0.223h-0.765c-0.182,0-0.229,0.041-0.229,0.223
		c0,1.104,1.136,1.672,2.123,1.672c1.216,0,2.101-0.537,2.101-1.656C40.293,29.899,39.456,29.67,38.887,29.497z"/>
	<path fill="#555555" d="M44.727,27.317h-3.663c-0.181,0-0.229,0.088-0.229,0.229v0.656c0,0.143,0.048,0.23,0.229,0.23h1.216v3.85
		c0,0.184,0.086,0.23,0.229,0.23h0.781c0.142,0,0.229-0.047,0.229-0.23v-3.85h1.208c0.182,0,0.229-0.088,0.229-0.23v-0.656
		C44.956,27.405,44.909,27.317,44.727,27.317z"/>
	<path fill="#555555" d="M49.628,27.317h-0.781c-0.143,0-0.229,0.049-0.229,0.229v3.205c0,0.498-0.332,0.783-0.853,0.783
		s-0.845-0.285-0.845-0.783v-3.205c0-0.18-0.086-0.229-0.229-0.229h-0.781c-0.141,0-0.228,0.049-0.228,0.229v3.379
		c0,1.24,1.143,1.705,2.083,1.705c0.94,0,2.093-0.465,2.093-1.705v-3.379C49.856,27.366,49.77,27.317,49.628,27.317z"/>
	<path fill="#555555" d="M52.956,27.317h-1.768c-0.182,0-0.229,0.088-0.229,0.229v4.736c0,0.143,0.047,0.23,0.229,0.23h1.768
		c0.938,0,2.124-0.537,2.124-1.777v-1.643C55.08,27.862,53.895,27.317,52.956,27.317z M53.841,30.625
		c0,0.506-0.363,0.789-0.885,0.789h-0.758v-3h0.758c0.521,0,0.885,0.293,0.885,0.789V30.625z"/>
	<path fill="#555555" d="M58.346,31.43h-0.497v-3.016h0.473c0.182,0,0.229-0.086,0.229-0.229v-0.641
		c0-0.141-0.048-0.229-0.229-0.229h-2.193c-0.183,0-0.229,0.088-0.229,0.229v0.641c0,0.143,0.046,0.229,0.229,0.229h0.48v3.016
		h-0.497c-0.181,0-0.229,0.088-0.229,0.229v0.623c0,0.143,0.048,0.23,0.229,0.23h2.234c0.182,0,0.229-0.088,0.229-0.23v-0.623
		C58.574,31.518,58.527,31.43,58.346,31.43z"/>
	<path fill="#555555" d="M61.549,27.2c-0.939,0-2.108,0.537-2.108,1.783v1.863c0,1.246,1.169,1.783,2.108,1.783
		s2.123-0.537,2.123-1.783v-1.863C63.672,27.737,62.488,27.2,61.549,27.2z M62.434,30.735c0,0.506-0.364,0.799-0.885,0.799
		c-0.513,0-0.876-0.293-0.876-0.799v-1.643c0-0.504,0.363-0.797,0.876-0.797c0.521,0,0.885,0.293,0.885,0.797V30.735z"/>
</g>
<g>
</g>
<g>
</g>
<g>
</g>
<g>
</g>
<g>
</g>
<g>
</g>
<g>
</g>
<g>
</g>
<g>
</g>
<g>
</g>
<g>
</g>
<g>
</g>
<g>
</g>
<g>
</g>
<g>
</g>
</svg>
