<?xml version="1.0" encoding="utf-8"?>
<!-- Generator: Adobe Illustrator 16.0.0, SVG Export Plug-In . SVG Version: 6.00 Build 0)  -->
<!DOCTYPE svg PUBLIC "-//W3C//DTD SVG 1.1//EN" "http://www.w3.org/Graphics/SVG/1.1/DTD/svg11.dtd">
<svg version="1.1" id="Layer_1" xmlns="http://www.w3.org/2000/svg" xmlns:xlink="http://www.w3.org/1999/xlink" x="0px" y="0px"
	 width="254.379px" height="50.697px" viewBox="0 0 254.379 50.697" enable-background="new 0 0 254.379 50.697"
	 xml:space="preserve">
<g>
	<path fill-rule="evenodd" clip-rule="evenodd" fill="#40423D" d="M217.365,27.698c-1.058,1.369-2.567,2.084-3.989,2.951
		c-2.589,1.583-5.427,2.377-8.389,2.728c-1.404,0.166-2.849,0.142-4.268-0.093c-1.164-0.194-1.958-0.835-2.422-1.979
		c-1.279,1.037-2.731,1.633-4.309,1.942c-1.262,0.247-2.517,0.227-3.754-0.103c-1.034-0.276-1.912-0.834-2.507-1.734
		c-0.25-0.376-0.482-0.374-0.844-0.254c-0.853,0.282-1.667,0.643-2.457,1.068c-1.399,0.751-2.872,1.228-4.485,1.205
		c-1.586-0.022-2.794-0.996-3.11-2.56c-0.044-0.213-0.093-0.425-0.155-0.701c-0.392,0.313-0.729,0.598-1.083,0.863
		c-3.462,2.604-7.343,3.767-11.671,3.37c-0.343-0.033-0.686-0.101-1.022-0.178c-2.593-0.581-3.39-2.983-2.756-5.172
		c0.763-2.636,2.332-4.713,4.342-6.512c1.564-1.399,3.104-2.828,4.379-4.512c0.134-0.175,0.258-0.356,0.479-0.664
		c-0.813,0.088-1.499,0.164-2.188,0.235c-1.076,0.11-1.563-0.446-1.33-1.496c0.119-0.534,0.531-0.743,0.985-0.898
		c0.874-0.297,1.797-0.334,2.698-0.489c0.581-0.101,1.163-0.198,1.748-0.271c0.41-0.051,0.63-0.354,0.893-0.6
		c3.279-3.056,6.598-6.068,9.979-9.012c0.997-0.87,2.064-1.658,3.195-2.35c0.733-0.449,1.513-0.78,2.365-0.95
		c0.448-0.09,0.599,0.114,0.645,0.492c0.06,0.497-0.146,0.914-0.414,1.31c-0.59,0.872-1.406,1.522-2.177,2.218
		c-2.963,2.684-5.769,5.526-8.506,8.437c-0.054,0.056-0.102,0.117-0.253,0.298c1.162-0.127,2.195-0.23,3.225-0.353
		c3.72-0.443,7.443-0.841,11.174-1.195c3.729-0.353,7.461-0.669,11.201-0.898c0.334-0.021,0.563,0.039,0.827,0.243
		c0.897,0.699,1.823,1.363,2.856,2.127c-1.387,0.083-2.632,0.152-3.877,0.233c-3.516,0.226-7.021,0.596-10.525,0.941
		c-2.998,0.297-6.004,0.526-9.007,0.778c-2.049,0.173-4.099,0.318-6.147,0.508c-1.216,0.113-2.236,0.682-3.15,1.479
		c-2.054,1.789-3.796,3.864-5.53,5.947c-0.991,1.188-2.096,2.281-3.001,3.541c-0.382,0.532-0.719,1.092-0.911,1.719
		c-0.492,1.595,0.484,2.842,2.146,2.746c1.066-0.062,2.077-0.383,3.081-0.713c2.069-0.68,4.104-1.436,5.944-2.638
		c0.495-0.323,1.026-0.613,1.629-0.654c0.295-0.02,0.352-0.237,0.487-0.399c2.44-2.913,5.436-4.999,9.107-6.053
		c1.078-0.311,2.184-0.281,3.272-0.064c1.366,0.274,2.205,1.334,2.223,2.745c0.012,0.955,0.012,0.961,0.919,0.988
		c0.316,0.01,0.486,0.158,0.559,0.454c0.153,0.613-0.011,1.175-0.308,1.698c-0.396,0.694-0.923,1.291-1.484,1.856
		c-0.248,0.249-0.525,0.486-0.41,0.888c0.126,0.439,0.514,0.563,0.897,0.633c1.779,0.321,3.433-0.045,4.976-0.968
		c0.629-0.376,1.129-0.841,1.523-1.498c0.717-1.189,1.705-2.185,2.698-3.148c1.539-1.493,2.979-3.07,4.333-4.729
		c1.835-2.248,3.865-4.294,6.11-6.141c1.334-1.098,2.823-1.952,4.197-2.977c0.048-0.037,0.106-0.065,0.145-0.112
		c0.9-1.093,1.955-0.755,2.992-0.294c1.001,0.446,1.282,1.386,0.787,2.371c-1.2,2.391-2.94,4.338-4.958,6.059
		c-0.898,0.769-1.805,1.526-2.68,2.321c-1.71,1.555-3.778,2.455-5.9,3.241c-1.931,0.715-3.434,1.908-4.479,3.678
		c-0.248,0.42-0.473,0.856-0.506,1.357c-0.06,0.881,0.366,1.396,1.25,1.47c1.374,0.117,2.716-0.164,4.063-0.373
		c3.104-0.482,5.759-1.912,8.167-3.858c0.685-0.557,1.13-1.336,1.756-1.952c0.704-0.693,1.487-1.261,2.391-1.667
		c1.062-0.475,2.073-1.033,2.987-1.766c0.522-0.418,1.118-0.658,1.814-0.55c0.953,0.147,1.414,0.928,1.091,1.844
		c-0.21,0.602-0.677,0.946-1.188,1.261c-1.356,0.835-2.202,2.048-2.52,3.594c-0.298,1.454,0.455,2.526,1.913,2.707
		c3.04,0.377,5.973,0.069,8.65-1.576c0.155-0.095,0.298-0.211,0.438-0.326c0.997-0.817,2.074-1.506,3.221-2.092
		c1.012-0.516,1.27-1.03,1.072-2.118c-0.247-1.354-0.001-1.862,1.241-2.422c1.047-0.47,2.136-0.766,3.305-0.742
		c1.937,0.038,3.869,0.13,5.774,0.492c1.711,0.324,2.225,1.613,1.255,3.073c-0.33,0.497-0.743,0.923-1.202,1.295
		c-1.248,1.015-2.46,2.078-3.807,2.97c-0.156,0.104-0.455,0.181-0.382,0.403c0.077,0.236,0.376,0.181,0.592,0.168
		c0.792-0.049,1.582-0.125,2.374-0.166c1.55-0.082,3.04,0.244,4.479,0.772c0.64,0.235,1.185,0.166,1.749-0.14
		c0.755-0.409,1.396-0.971,2.09-1.617c0.137,0.538,0.254,0.999,0.373,1.459c0.057,0.219-0.1,0.34-0.216,0.473
		c-0.554,0.627-1.119,1.242-1.666,1.872c-0.801,0.917-1.812,1.211-2.978,0.992c-1.118-0.212-2.225-0.481-3.343-0.694
		c-1.746-0.334-3.478-0.225-5.197,0.216c-0.908,0.231-1.821,0.433-2.77,0.403c-0.551-0.018-1.058-0.108-1.342-0.664
		c-0.309-0.605-0.161-1.147,0.235-1.645c0.671-0.838,1.507-1.489,2.406-2.056c1.655-1.049,3.271-2.142,4.618-3.588
		c0.524-0.565,0.502-0.817-0.205-1.101c-1.02-0.41-2.084-0.557-3.172-0.337c-0.936,0.188-1.578,0.744-1.838,1.673
		c-0.467,1.67-1.545,2.769-3.1,3.472c-0.608,0.274-1.194,0.611-1.763,0.967c-2.614,1.633-5.404,2.784-8.485,3.17
		c-1.553,0.194-3.085,0.488-4.665,0.144c-2.741-0.6-4.002-2.486-3.44-5.252c0.027-0.136,0.037-0.274,0.056-0.411
		C217.458,27.756,217.411,27.727,217.365,27.698z M181.819,30.5c0.093-0.014,0.321-0.021,0.533-0.084
		c2.262-0.677,4.309-1.774,6.195-3.181c0.237-0.178,0.438-0.43,0.599-0.684c0.391-0.633,0.32-1.3-0.012-1.919
		c-0.295-0.548-0.854-0.557-1.397-0.518c-0.182,0.013-0.367,0.026-0.543,0.071c-2.513,0.648-4.502,2.105-6.182,4.029
		c-0.158,0.181-0.271,0.407-0.372,0.626C180.223,29.756,180.693,30.494,181.819,30.5z M205.888,23.304
		c0.898-0.075,1.671-0.315,2.395-0.688c1.917-0.986,3.574-2.327,5.101-3.834c0.622-0.616,1.219-1.26,1.556-2.09
		c0.125-0.311,0.193-0.647-0.047-0.924c-0.238-0.273-0.561-0.178-0.854-0.087c-0.969,0.303-1.789,0.874-2.555,1.511
		c-1.807,1.499-3.285,3.33-4.928,4.995C206.276,22.47,206.037,22.809,205.888,23.304z"/>
	<path fill-rule="evenodd" clip-rule="evenodd" fill="#40423D" d="M40.257,29.112c-2.398,1.246-4.864,2.346-7.358,3.387
		c-1.984,0.827-4.026,1.123-6.151,0.818c-0.511-0.075-0.991-0.248-1.382-0.598c-0.165-0.149-0.274-0.18-0.46-0.031
		c-3.816,3.055-7.773,5.961-10.68,9.985c-1.312,1.815-2.625,3.631-4.003,5.399c-0.602,0.774-1.248,1.504-2.096,2.026
		c-1.087,0.67-2.236,0.852-3.344,0.157c-1.08-0.679-1.231-1.819-1.132-2.977c0.196-2.285,1.25-4.232,2.529-6.067
		c2.825-4.049,5.967-7.849,9.214-11.564c0.423-0.482,0.875-0.95,1.152-1.615c-0.583,0.052-0.984,0.373-1.394,0.647
		c-1.776,1.188-3.575,2.341-5.444,3.382c-2.01,1.12-4.144,1.551-6.417,1.137c-2.747-0.501-3.615-1.979-3.186-4.765
		c0.324-2.11,1.357-3.943,2.446-5.741c1.3-2.147,2.766-4.175,4.303-6.155c0.124-0.16,0.243-0.323,0.405-0.54
		c-0.207-0.082-0.386-0.148-0.561-0.223c-0.544-0.229-1.083-0.475-1.568-0.813c-0.57-0.399-1.121-0.86-0.907-1.642
		c0.199-0.722,0.9-0.818,1.52-0.928c0.969-0.172,1.95-0.16,2.922-0.028c0.407,0.056,0.663-0.061,0.927-0.385
		c2.395-2.938,4.787-5.881,7.528-8.512c1.681-1.614,3.536-2.971,5.897-3.375c1.463-0.251,2.896,0.011,4.177,0.771
		c1.365,0.81,1.906,2.324,1.536,3.968c-0.68,3.017-2.505,5.279-4.716,7.321c-2.601,2.406-5.701,3.617-9.17,4.018
		c-0.586,0.068-1.184,0.249-1.756,0.189c-1.669-0.171-2.722,0.786-3.759,1.855c-2.641,2.718-4.155,6.045-5.206,9.613
		c-0.41,1.394,0.319,2.165,1.772,1.995c2.006-0.235,3.767-1.142,5.493-2.089c2.925-1.603,5.805-3.286,8.711-4.921
		c0.838-0.471,1.729-0.819,2.692-0.935c0.26-0.03,0.532-0.047,0.791-0.011c1.028,0.146,1.399,0.701,1.04,1.674
		c-0.688,1.868-1.885,3.426-3.239,4.841c-2.085,2.178-4.316,4.209-6.331,6.46c-2.416,2.702-4.622,5.531-5.978,8.935
		c-0.15,0.376-0.261,0.769-0.382,1.156c-0.048,0.151-0.136,0.336,0.029,0.451c0.191,0.135,0.345-0.032,0.484-0.14
		c0.557-0.42,1.027-0.928,1.48-1.452c1.225-1.42,2.438-2.849,3.673-4.26c1.76-2.012,3.604-3.942,5.808-5.484
		c3.1-2.17,5.806-4.78,8.46-7.458c1.333-1.344,2.741-2.615,4.122-3.912c0.492-0.461,1.016-0.885,1.603-1.22
		c0.706-0.406,1.471-0.352,2.043,0.129c0.706,0.594,0.817,1.066,0.476,2.009c-0.414,1.141-1.204,1.965-2.203,2.61
		c-1.201,0.771-2.408,1.529-3.526,2.419c-0.316,0.252-0.614,0.535-0.897,0.826c-0.242,0.249-0.352,0.575-0.202,0.899
		c0.145,0.317,0.487,0.38,0.788,0.366c0.403-0.017,0.809-0.09,1.203-0.182c1.056-0.245,2.053-0.66,3.005-1.167
		c2.514-1.336,5.108-2.506,7.689-3.702c0.851-0.396,1.556-0.949,2.002-1.804c0.18-0.342,0.461-0.624,0.786-0.845
		c0.646-0.438,1.3-0.244,1.463,0.51c0.277,1.273,0.087,2.49-0.82,3.479c-0.577,0.63-1.25,1.172-1.865,1.764
		c-0.281,0.268-0.57,0.561-0.582,0.973c-0.032,1.061,0.383,1.582,1.572,1.462c1.787-0.181,3.513-0.634,5.215-1.221
		c0.922-0.317,1.472-0.698,1.199-1.792c-0.117-0.463,0.042-0.972,0.165-1.445c0.261-1.009,1.033-1.479,2.035-1.261
		c0.285,0.063,0.473,0.245,0.577,0.497c0.138,0.338,0.273,0.682,0.354,1.035c0.192,0.853,0.182,0.858,1.033,0.557
		c2.915-1.032,5.767-2.21,8.502-3.661c1.492-0.792,2.759-1.786,3.45-3.398c0.235-0.552,0.706-0.794,1.344-0.707
		c0.657,0.088,1.078,0.375,1.249,1.052c0.239,0.968,0.053,1.814-0.602,2.559c-0.611,0.694-1.321,1.265-2.145,1.692
		c-1.671,0.869-3.246,1.86-4.492,3.317c-0.674,0.787-1.14,1.688-1.546,2.616c-0.791,1.797-2.244,2.536-4.086,2.738
		c-0.92,0.102-1.821,0.1-2.706-0.229c-0.907-0.337-1.675-0.853-2.151-1.71c-0.196-0.353-0.366-0.349-0.707-0.212
		c-2.987,1.2-6.065,1.987-9.313,1.944c-0.696-0.01-1.386-0.061-2.045-0.294c-1.16-0.412-1.605-1.423-1.088-2.54
		c0.246-0.532,0.569-1.029,0.858-1.545c0.015-0.048,0.056-0.124,0.041-0.138C40.355,28.998,40.297,29.042,40.257,29.112z
		 M12.67,13.302c0.959,0.08,1.767-0.011,2.576-0.058c2.026-0.116,3.921-0.638,5.625-1.785c1.949-1.311,3.427-3,4.164-5.253
		c0.567-1.733-0.71-3.079-2.489-2.688c-1.499,0.332-2.71,1.168-3.814,2.186c-1.628,1.501-2.881,3.313-4.217,5.058
		C13.9,11.563,13.326,12.396,12.67,13.302z M61.16,28.006c-1.759,0.703-3.519,1.408-5.28,2.109c-0.27,0.107-0.188,0.254-0.082,0.428
		c0.262,0.422,0.653,0.516,1.108,0.451C58.813,30.723,60.076,29.511,61.16,28.006z"/>
	<path fill-rule="evenodd" clip-rule="evenodd" fill="#40423D" d="M82.56,17.298c1.742-0.197,3.337-0.375,4.932-0.558
		c3.519-0.406,7.045-0.757,10.575-1.061c3.672-0.316,7.348-0.606,11.031-0.693c5.582-0.131,11.167-0.185,16.734,0.35
		c1.352,0.129,2.615,0.566,3.734,1.532c-0.938,0.396-1.855,0.501-2.776,0.374c-2.758-0.38-5.521-0.362-8.292-0.259
		c-2.585,0.099-5.172,0.157-7.759,0.193c-4.341,0.061-8.665,0.335-12.98,0.786c-3.908,0.408-7.823,0.772-11.745,1.027
		c-1.054,0.069-2.109,0.18-3.166,0.251c-1.389,0.092-2.514,0.705-3.519,1.641c-1.858,1.728-3.436,3.704-5.084,5.618
		c-0.65,0.755-1.362,1.461-1.902,2.308c-0.297,0.466-0.56,0.944-0.682,1.489c-0.234,1.05,0.468,1.984,1.547,2.033
		c0.998,0.046,1.927-0.277,2.857-0.574c1.824-0.584,3.583-1.306,5.233-2.304c0.601-0.364,1.049-0.741,1.426-1.358
		c1.025-1.683,2.56-2.888,4.169-3.977c1.811-1.228,3.704-2.295,5.919-2.615c0.875-0.125,1.752-0.097,2.61,0.111
		c1.351,0.326,2.114,1.338,2.126,2.758c0.008,0.93,0.008,0.938,0.898,0.947c0.347,0.005,0.519,0.169,0.589,0.494
		c0.134,0.614-0.036,1.171-0.338,1.692c-0.39,0.674-0.902,1.256-1.448,1.807c-0.263,0.265-0.564,0.522-0.416,0.942
		c0.147,0.419,0.541,0.533,0.927,0.601c1.738,0.304,3.355-0.049,4.866-0.935c0.297-0.173,0.586-0.366,0.878-0.551
		c0.117-0.074,0.259-0.123,0.259-0.303c-0.005-1.047,0.735-1.631,1.41-2.248c0.664-0.605,1.332-1.207,1.853-1.944
		c0.294-0.414,0.552-0.854,0.828-1.279c0.233-0.358,0.451-0.728,0.71-1.067c0.49-0.646,1.095-1.134,1.968-0.963
		c0.813,0.158,1.084,0.842,1.334,1.525c0.404,1.099,0.131,2.027-0.658,2.854c-0.626,0.653-1.326,1.202-2.136,1.608
		c-0.641,0.321-1.139,0.785-1.375,1.481c-0.29,0.857,0.192,1.579,1.098,1.611c0.903,0.032,1.719-0.312,2.495-0.717
		c1.82-0.946,3.397-2.24,4.956-3.551c0.596-0.499,0.922-1.165,1.019-1.956c0.08-0.646,0.314-1.256,0.536-1.87
		c0.398-1.107,1.946-1.914,3.177-1.114c0.118,0.078,0.248,0.137,0.374,0.206c1.413,0.778,1.62,1.383,0.986,2.875
		c-0.245,0.569-0.596,1.062-1.028,1.504c-0.428,0.437-0.805,0.913-1.06,1.481c-0.226,0.503-0.164,0.919,0.224,1.332
		c1.229,1.308,3.959,1.359,5.233,0.085c0.081-0.08,0.105-0.164,0.133-0.261c0.252-0.9,0.834-1.575,1.506-2.182
		c1.622-1.465,3.283-2.878,5.463-3.466c1.369-0.371,2.203,0.17,2.449,1.576c0.14,0.785-0.184,1.361-0.945,1.609
		c-0.463,0.15-0.941,0.268-1.42,0.351c-1.14,0.193-2.11,0.721-2.989,1.439c-0.456,0.373-0.882,0.823-0.628,1.459
		c0.262,0.651,0.763,1.101,1.512,1.174c0.5,0.048,1-0.017,1.415-0.287c1.042-0.687,2.203-1.139,3.288-1.736
		c0.46-0.255,0.918-0.539,1.317-0.879c0.975-0.834,0.979-2.237-0.008-3.033c-0.634-0.511-0.876-1.104-0.682-1.878
		c0.189-0.755,0.76-1.083,1.463-1.199c0.64-0.105,1.281-0.27,1.937-0.098c1.565,0.409,2.288,1.732,1.938,3.615
		c-0.113,0.61-0.465,1.211-0.029,1.815c0.56,0.777,1.374,1.189,2.264,1.458c0.432,0.131,0.873,0.128,1.327,0.031
		c0.822-0.175,1.214-0.002,1.349,0.529c0.17,0.658-0.282,1.547-0.896,1.742c-1.554,0.493-3.047,0.381-4.478-0.43
		c-0.513-0.291-1.043-0.541-1.631-0.669c-0.498-0.107-0.907-0.006-1.315,0.285c-1.495,1.063-3.045,2.034-4.738,2.755
		c-1.041,0.442-2.121,0.699-3.248,0.78c-1.554,0.11-2.652-0.644-3.465-1.865c-0.227-0.337-0.355-0.38-0.693-0.188
		c-1.499,0.852-3.101,1.239-4.81,0.824c-1.276-0.313-2.373-0.93-3.101-2.094c-0.372-0.595-0.756-0.68-1.336-0.29
		c-0.708,0.477-1.382,1.004-2.065,1.519c-1.643,1.235-3.449,2.064-5.522,2.227c-2.135,0.166-3.781-0.68-5.014-2.428
		c-1.831,1.551-3.989,2.293-6.392,2.273c-1.829-0.015-3.464-0.535-4.53-2.172c-0.181-0.278-0.378-0.172-0.574-0.111
		c-0.896,0.277-1.75,0.652-2.576,1.099c-1.396,0.755-2.87,1.235-4.482,1.213c-1.486-0.021-2.609-0.831-3.05-2.248
		c-0.04-0.132-0.078-0.265-0.131-0.445c-0.338,0.262-0.654,0.511-0.978,0.751c-2.91,2.18-6.174,3.12-9.798,2.794
		c-0.121-0.011-0.241-0.025-0.362-0.044c-2.745-0.412-3.458-2.674-2.68-4.934c0.788-2.287,2.316-3.986,4.07-5.542
		c1.161-1.029,2.258-2.119,3.194-3.362c0.094-0.125,0.176-0.261,0.292-0.436c-0.692-0.075-1.298,0.123-1.919,0.132
		c-0.463,0.007-0.849-0.021-0.96-0.594c-0.106-0.555-0.04-1.011,0.507-1.298c0.515-0.271,1.085-0.335,1.646-0.424
		c0.663-0.104,1.328-0.204,1.995-0.283c0.506-0.059,0.888-0.292,1.265-0.639c3.194-2.934,6.308-5.963,9.732-8.64
		c0.913-0.715,1.878-1.362,3.039-1.639c0.693-0.165,0.964,0.089,0.79,0.784c-0.158,0.638-0.586,1.121-1.056,1.543
		c-2.205,1.972-4.311,4.044-6.385,6.151C84.019,15.764,83.338,16.487,82.56,17.298z M93.305,24.11
		c-0.082,0.014-0.348,0.029-0.602,0.09c-2.359,0.575-4.205,1.974-5.866,3.663c-0.314,0.321-0.558,0.699-0.717,1.125
		c-0.289,0.783,0.135,1.452,0.964,1.507c0.284,0.02,0.567-0.001,0.846-0.086c2.239-0.678,4.262-1.777,6.142-3.152
		c0.281-0.205,0.502-0.477,0.668-0.785C95.334,25.349,94.672,24.101,93.305,24.11z"/>
	<path fill-rule="evenodd" clip-rule="evenodd" fill="#E53832" d="M166.863,43.764c0.592-1.982,1.151-3.852,1.71-5.72
		c0.04-0.137,0.08-0.273,0.13-0.407c0.049-0.137,0.156-0.188,0.291-0.139c0.135,0.048,0.088,0.157,0.058,0.254
		c-0.023,0.078-0.041,0.157-0.066,0.234c-0.61,2.004-1.221,4.01-1.844,6.008c-0.052,0.164-0.008,0.463-0.318,0.437
		c-0.249-0.021-0.213-0.272-0.255-0.43c-0.463-1.709-0.914-3.42-1.369-5.13c-0.049-0.187-0.104-0.369-0.201-0.708
		c-0.405,1.345-0.769,2.542-1.129,3.74c-0.219,0.722-0.43,1.443-0.659,2.161c-0.044,0.137-0.022,0.356-0.253,0.367
		c-0.277,0.014-0.24-0.244-0.282-0.393c-0.548-2.022-1.087-4.049-1.615-6.076c-0.036-0.142-0.246-0.386,0.03-0.459
		c0.298-0.078,0.272,0.24,0.318,0.413c0.459,1.709,0.906,3.421,1.355,5.133c0.052,0.196,0.102,0.394,0.162,0.627
		c0.152-0.114,0.16-0.267,0.202-0.405c0.529-1.795,1.06-3.59,1.594-5.383c0.05-0.168,0.045-0.4,0.294-0.401
		c0.297-0.003,0.256,0.278,0.303,0.452C165.829,39.844,166.33,41.752,166.863,43.764z"/>
	<path fill-rule="evenodd" clip-rule="evenodd" fill="#40423D" d="M234.283,7.606c0.617-0.009,1.147,0.382,1.243,1.015
		c0.069,0.459,0.284,0.789,0.606,1.084c0.364,0.335,0.354,0.748-0.071,1.023c-0.528,0.343-1.117,0.586-1.745,0.675
		c-0.366,0.052-0.727-0.041-0.995-0.339c-0.396-0.435-0.794-0.868-1.188-1.306c-0.09-0.1-0.187-0.181-0.141-0.361
		C232.164,8.723,233.563,7.616,234.283,7.606z"/>
	<path fill-rule="evenodd" clip-rule="evenodd" fill="#E53832" d="M196.939,43.596c-0.216,0.194-0.328,0.302-0.445,0.4
		c-0.909,0.757-2.211,0.604-2.921-0.338c-0.713-0.951-0.708-2.497,0.015-3.435c0.814-1.058,2.092-1.104,3.31-0.124
		c0.274-0.105-0.037-0.606,0.274-0.55c0.353,0.064,0.114,0.451,0.117,0.679c0.015,1.384,0.032,2.771-0.025,4.154
		c-0.094,2.213-2.063,2.588-3.473,1.951c-0.106-0.049-0.332-0.058-0.233-0.271c0.1-0.218,0.238-0.031,0.353,0.005
		c0.157,0.047,0.302,0.126,0.457,0.169c1.409,0.386,2.434-0.32,2.569-1.773C196.957,44.222,196.939,43.978,196.939,43.596z
		 M196.955,41.941c0-0.257,0.007-0.439-0.001-0.622c-0.028-0.72-0.49-1.353-1.144-1.575c-0.621-0.211-1.371,0.003-1.827,0.521
		c-0.73,0.832-0.804,2.286-0.158,3.186c0.671,0.936,1.911,0.996,2.678,0.137C196.949,43.088,196.981,42.487,196.955,41.941z"/>
	<path fill-rule="evenodd" clip-rule="evenodd" fill="#E53832" d="M228.739,43.619c-1.052,0.933-2.013,1.085-2.852,0.521
		c-0.941-0.632-1.3-2.066-0.827-3.308c0.375-0.981,1.279-1.534,2.307-1.429c0.54,0.056,0.951,0.334,1.308,0.708
		c0.045-0.022,0.088-0.031,0.113-0.058c0.139-0.146-0.117-0.544,0.23-0.502c0.266,0.031,0.086,0.351,0.087,0.528
		c0.006,1.426,0.035,2.854-0.031,4.277c-0.085,1.869-1.751,2.808-3.446,1.988c-0.109-0.053-0.341-0.056-0.267-0.259
		c0.1-0.268,0.261-0.028,0.395-0.006c0.038,0.007,0.072,0.036,0.111,0.049c0.764,0.266,1.533,0.354,2.203-0.193
		C228.775,45.362,228.804,44.55,228.739,43.619z M228.767,41.947c0-0.271,0.009-0.476,0-0.678c-0.038-0.683-0.499-1.313-1.134-1.519
		c-0.687-0.221-1.293-0.043-1.786,0.462c-0.808,0.827-0.868,2.427-0.145,3.326c0.67,0.833,1.822,0.873,2.563,0.101
		C228.748,43.136,228.801,42.523,228.767,41.947z"/>
	<path fill-rule="evenodd" clip-rule="evenodd" fill="#E53832" d="M178.319,40.155c0-0.937-0.003-1.791,0.002-2.646
		c0.001-0.149-0.057-0.376,0.182-0.38c0.258-0.003,0.168,0.235,0.169,0.374c0.014,2.218,0.02,4.438,0.026,6.655
		c0,0.114,0.039,0.268-0.146,0.272c-0.189,0.006-0.142-0.153-0.157-0.265c-0.022-0.152,0.06-0.324-0.185-0.542
		c-0.071,0.114-0.123,0.258-0.222,0.351c-1.035,0.985-2.595,0.719-3.226-0.562c-0.461-0.936-0.44-1.899,0.017-2.824
		C175.463,39.21,176.91,39.017,178.319,40.155z M178.317,41.954c0-0.204,0.008-0.408-0.001-0.61c-0.034-0.802-0.52-1.44-1.235-1.63
		c-0.739-0.197-1.522,0.125-1.92,0.839c-0.495,0.896-0.517,1.835-0.064,2.75c0.322,0.651,0.871,1.026,1.622,0.977
		c0.722-0.047,1.178-0.48,1.467-1.125C178.357,42.765,178.31,42.358,178.317,41.954z"/>
	<path fill-rule="evenodd" clip-rule="evenodd" fill="#E53832" d="M183.947,40.202c0-0.966-0.004-1.813,0.004-2.66
		c0.002-0.16-0.086-0.429,0.208-0.406c0.235,0.016,0.139,0.256,0.14,0.396c0.015,2.198,0.021,4.396,0.025,6.595
		c0,0.131,0.06,0.322-0.175,0.302c-0.176-0.016-0.112-0.182-0.125-0.292c-0.015-0.137-0.021-0.275-0.031-0.399
		c-0.164-0.054-0.203,0.065-0.268,0.13c-1.161,1.173-2.858,0.837-3.448-0.701c-0.32-0.835-0.285-1.681,0.091-2.493
		C181.04,39.227,182.604,38.977,183.947,40.202z M183.946,42.012c0-0.297,0.008-0.501-0.003-0.703
		c-0.041-0.772-0.514-1.389-1.207-1.588c-0.722-0.204-1.486,0.082-1.896,0.76c-0.56,0.923-0.579,1.894-0.098,2.851
		c0.317,0.629,0.855,0.987,1.577,0.948c0.751-0.039,1.218-0.485,1.505-1.157C183.991,42.73,183.931,42.321,183.946,42.012z"/>
	<path fill-rule="evenodd" clip-rule="evenodd" fill="#E53832" d="M238.769,40.34c0.759-0.871,1.598-1.199,2.583-0.79
		c1.017,0.421,1.321,1.316,1.339,2.337c0.015,0.777-0.166,1.503-0.73,2.073c-0.858,0.868-2.072,0.795-3.228-0.242
		c0,0.811,0.01,1.55-0.007,2.287c-0.003,0.173,0.126,0.484-0.199,0.467c-0.258-0.013-0.144-0.293-0.144-0.449
		c-0.012-2.036-0.012-4.073-0.009-6.109c0-0.141-0.135-0.371,0.133-0.385c0.26-0.014,0.161,0.224,0.188,0.367
		C238.715,40.012,238.732,40.128,238.769,40.34z M242.354,41.821c-0.015-0.126-0.027-0.329-0.063-0.529
		c-0.19-1.043-0.946-1.688-1.889-1.619c-0.922,0.066-1.651,0.909-1.666,1.931c-0.006,0.366-0.019,0.733,0.01,1.097
		c0.055,0.727,0.566,1.305,1.305,1.519c0.683,0.196,1.402-0.052,1.831-0.645C242.241,43.075,242.342,42.499,242.354,41.821z"/>
	<path fill-rule="evenodd" clip-rule="evenodd" fill="#E53832" d="M244.239,40.314c0.371-0.379,0.648-0.66,1.048-0.798
		c1.107-0.385,2.088,0.14,2.29,1.288c0.197,1.109,0.05,2.235,0.084,3.353c0.005,0.12,0.005,0.257-0.161,0.273
		c-0.239,0.021-0.181-0.164-0.19-0.293c-0.008-0.121-0.001-0.244-0.001-0.367c0-0.813,0.018-1.629-0.006-2.442
		c-0.028-1.036-0.58-1.665-1.409-1.656c-0.877,0.009-1.632,0.775-1.649,1.712c-0.019,0.876,0,1.752-0.011,2.627
		c-0.001,0.156,0.105,0.423-0.196,0.413c-0.253-0.009-0.149-0.249-0.149-0.384c-0.009-2.179-0.007-4.357-0.002-6.536
		c0.002-0.138-0.089-0.376,0.168-0.375c0.238,0.003,0.183,0.229,0.183,0.38C244.242,38.402,244.239,39.296,244.239,40.314z"/>
	<path fill-rule="evenodd" clip-rule="evenodd" fill="#E53832" d="M206.431,40.296c0.229-0.216,0.364-0.364,0.519-0.485
		c1.135-0.893,2.598-0.361,2.833,1.053c0.183,1.09,0.042,2.195,0.073,3.293c0.003,0.12,0.004,0.256-0.165,0.271
		c-0.237,0.024-0.187-0.162-0.188-0.29c-0.004-0.692-0.003-1.385-0.003-2.076c0-0.225,0.005-0.449,0-0.673
		c-0.03-1.078-0.564-1.726-1.414-1.718c-0.899,0.007-1.639,0.788-1.651,1.771c-0.012,0.854,0.001,1.709-0.009,2.565
		c-0.001,0.156,0.104,0.422-0.194,0.415c-0.256-0.005-0.15-0.245-0.152-0.382c-0.007-2.178-0.007-4.356,0-6.534
		c0-0.139-0.092-0.375,0.164-0.377c0.24-0.003,0.185,0.225,0.187,0.374C206.435,38.399,206.431,39.294,206.431,40.296z"/>
	<path fill-rule="evenodd" clip-rule="evenodd" fill="#E53832" d="M201.059,40.995c0-0.997,0.021-1.993-0.012-2.988
		c-0.013-0.382,0.139-0.504,0.475-0.527c0.506-0.037,1.013-0.082,1.52-0.01c0.964,0.139,1.588,0.755,1.684,1.652
		c0.106,0.971-0.374,1.801-1.24,2.154c-0.502,0.206-1.027,0.297-1.554,0.206c-0.471-0.081-0.542,0.105-0.523,0.513
		c0.027,0.648,0.018,1.301,0.001,1.95c-0.004,0.172,0.128,0.487-0.191,0.472c-0.302-0.016-0.148-0.324-0.152-0.494
		C201.049,42.947,201.059,41.97,201.059,40.995z M201.415,39.444c0,0.183,0,0.365,0,0.548c0,1.284,0.178,1.428,1.468,1.172
		c0.061-0.012,0.12-0.021,0.18-0.035c0.862-0.213,1.321-0.813,1.318-1.722c-0.001-0.885-0.437-1.42-1.325-1.637
		c-0.382-0.092-0.767-0.05-1.151-0.047c-0.388,0.002-0.529,0.176-0.497,0.565C201.44,38.672,201.415,39.06,201.415,39.444z"/>
	<path fill-rule="evenodd" clip-rule="evenodd" fill="#E53832" d="M224.011,42.021c-0.067,1.921-1.69,3.074-3.262,2.319
		c-1.045-0.502-1.543-1.894-1.157-3.228c0.343-1.176,1.303-1.838,2.476-1.702C223.261,39.547,224.061,40.62,224.011,42.021z
		 M223.672,41.993c0.01-1.429-0.869-2.413-2.075-2.321c-1.018,0.076-1.754,1.01-1.787,2.261c-0.031,1.229,0.807,2.303,1.839,2.354
		c1.053,0.052,1.946-0.906,2.021-2.172C223.672,42.075,223.67,42.033,223.672,41.993z"/>
	<path fill-rule="evenodd" clip-rule="evenodd" fill="#E53832" d="M213.223,44.563c-1.287-0.016-2.218-1.104-2.194-2.57
		c0.022-1.538,0.984-2.618,2.314-2.604c1.341,0.016,2.257,1.085,2.227,2.595C215.535,43.51,214.563,44.58,213.223,44.563z
		 M215.229,41.997c0.013-1.429-0.862-2.413-2.071-2.325c-1.001,0.071-1.718,0.955-1.788,2.195c-0.069,1.24,0.781,2.365,1.832,2.42
		c1.074,0.056,1.982-0.942,2.027-2.229C215.229,42.039,215.229,42.017,215.229,41.997z"/>
	<path fill-rule="evenodd" clip-rule="evenodd" fill="#E53832" d="M236.291,43.817c-0.453,0.433-0.918,0.743-1.529,0.748
		c-0.651,0.006-1.158-0.298-1.368-0.831c-0.229-0.583-0.037-1.299,0.477-1.707c0.555-0.439,1.221-0.574,1.897-0.561
		c0.569,0.011,0.576-0.27,0.497-0.685c-0.18-0.944-0.887-1.322-1.897-0.994c-0.154,0.05-0.299,0.125-0.446,0.192
		c-0.082,0.038-0.152,0.047-0.201-0.045c-0.05-0.095,0.003-0.163,0.07-0.203c0.552-0.319,1.146-0.432,1.764-0.272
		c0.568,0.146,0.882,0.556,1.003,1.119c0.181,0.825,0.065,1.666,0.095,2.499c0.014,0.346,0.019,0.692,0.02,1.039
		c0,0.11,0.08,0.271-0.09,0.307c-0.232,0.052-0.176-0.162-0.213-0.28C236.336,44.052,236.322,43.956,236.291,43.817z
		 M236.296,42.455c-0.122-0.195,0.238-0.657-0.222-0.702c-0.713-0.072-1.429,0.039-2.019,0.51c-0.42,0.336-0.542,0.968-0.299,1.444
		c0.26,0.505,0.708,0.642,1.233,0.56C235.849,44.133,236.296,43.518,236.296,42.455z"/>
	<path fill-rule="evenodd" clip-rule="evenodd" fill="#E53832" d="M171.774,41.853c-0.49,0-0.979,0.018-1.465-0.006
		c-0.377-0.019-0.432,0.137-0.392,0.474c0.182,1.539,1.258,2.252,2.788,1.826c0.077-0.021,0.152-0.059,0.229-0.081
		c0.108-0.031,0.242-0.146,0.313,0.014c0.068,0.153-0.083,0.206-0.194,0.244c-1.292,0.462-2.922,0.288-3.389-1.441
		c-0.259-0.96-0.154-1.905,0.467-2.728c0.53-0.701,1.499-0.949,2.305-0.629c0.687,0.274,1.237,1.265,1.167,2.051
		c-0.023,0.267-0.17,0.278-0.367,0.276C172.75,41.85,172.26,41.852,171.774,41.853z M171.563,41.567
		c0.426,0,0.852-0.015,1.277,0.003c0.345,0.015,0.398-0.119,0.35-0.438c-0.151-0.939-0.719-1.5-1.552-1.479
		c-0.798,0.02-1.572,0.779-1.656,1.601c-0.024,0.261,0.081,0.319,0.304,0.315C170.711,41.56,171.138,41.567,171.563,41.567z"/>
	<path fill-rule="evenodd" clip-rule="evenodd" fill="#E53832" d="M250.817,43.807c0.482-1.273,0.958-2.527,1.434-3.783
		c0.051-0.132,0.101-0.265,0.163-0.394c0.05-0.104,0.147-0.141,0.255-0.105c0.153,0.05,0.079,0.16,0.044,0.243
		c-0.854,1.954-1.477,4.009-2.554,5.864c-0.219,0.375-0.544,0.662-0.927,0.866c-0.126,0.065-0.295,0.277-0.42,0.084
		c-0.148-0.228,0.153-0.215,0.254-0.307c0.226-0.203,0.489-0.369,0.691-0.593c0.618-0.693,0.916-1.403,0.423-2.363
		c-0.536-1.044-0.908-2.175-1.333-3.274c-0.059-0.154-0.32-0.396-0.059-0.504c0.301-0.125,0.317,0.235,0.392,0.42
		c0.479,1.166,0.945,2.336,1.415,3.505C250.64,43.578,250.645,43.71,250.817,43.807z"/>
	<path fill-rule="evenodd" clip-rule="evenodd" fill="#E53832" d="M188.327,40.259c0.433-0.43,0.813-0.753,1.343-0.839
		c0.992-0.156,1.784,0.352,1.98,1.356c0.22,1.127,0.056,2.273,0.097,3.411c0.004,0.134-0.028,0.249-0.196,0.243
		c-0.182-0.006-0.156-0.151-0.156-0.265c-0.003-0.814-0.003-1.629-0.003-2.443c0-0.164,0.006-0.326-0.004-0.488
		c-0.074-0.99-0.621-1.577-1.446-1.563c-0.859,0.014-1.596,0.758-1.615,1.67c-0.019,0.896,0,1.792-0.008,2.688
		c-0.001,0.144,0.082,0.376-0.158,0.391c-0.309,0.02-0.187-0.254-0.188-0.399c-0.011-1.364-0.009-2.729-0.003-4.094
		c0-0.139-0.146-0.373,0.114-0.396c0.235-0.022,0.18,0.217,0.2,0.366C188.296,39.977,188.303,40.057,188.327,40.259z"/>
	<path fill-rule="evenodd" clip-rule="evenodd" fill="#E53832" d="M218.768,44.249c-0.731,0.555-1.537,0.242-1.68-0.597
		c-0.148-0.888-0.038-1.788-0.063-2.684c-0.006-0.182-0.024-0.369,0.003-0.548c0.077-0.504-0.106-0.722-0.624-0.633
		c-0.071,0.014-0.163,0.012-0.214-0.11c0.015-0.03,0.04-0.122,0.063-0.122c0.532,0.008,0.919-0.109,0.781-0.778
		c-0.027-0.134,0.081-0.235,0.222-0.231c0.093,0.001,0.125,0.102,0.109,0.182c-0.193,0.917,0.438,0.783,0.982,0.791
		c0.148,0.001,0.434-0.134,0.427,0.153c-0.003,0.218-0.261,0.11-0.401,0.116c-1.005,0.034-1.005,0.029-1.005,1.033
		c0,0.672,0,1.344,0,2.016C217.369,44.061,217.529,44.235,218.768,44.249z"/>
	<path fill-rule="evenodd" clip-rule="evenodd" fill="#E53832" d="M231.246,40.288c0.403-0.483,0.745-0.865,1.305-0.891
		c0.103-0.005,0.225-0.013,0.243,0.12c0.024,0.146-0.104,0.127-0.199,0.156c-0.88,0.263-1.291,0.803-1.318,1.795
		c-0.024,0.834,0,1.67-0.013,2.504c-0.002,0.159,0.108,0.438-0.16,0.444c-0.348,0.012-0.181-0.303-0.184-0.463
		c-0.017-1.344-0.015-2.689-0.013-4.032c0.002-0.142-0.13-0.38,0.131-0.388c0.256-0.009,0.121,0.243,0.154,0.381
		C231.212,39.991,231.217,40.069,231.246,40.288z"/>
	<path fill-rule="evenodd" clip-rule="evenodd" fill="#E53832" d="M186.008,41.99c0-0.714-0.003-1.427,0.003-2.141
		c0-0.122-0.076-0.315,0.156-0.324c0.209-0.008,0.197,0.155,0.197,0.299c0,1.427,0.001,2.854-0.002,4.28
		c0,0.133,0.039,0.317-0.172,0.324c-0.279,0.008-0.175-0.228-0.177-0.36C186.002,43.375,186.008,42.682,186.008,41.99z"/>
	<path fill-rule="evenodd" clip-rule="evenodd" fill="#E53832" d="M186.503,38.074c-0.015,0.207-0.082,0.371-0.312,0.384
		c-0.198,0.011-0.295-0.111-0.317-0.298c-0.027-0.212,0.06-0.373,0.271-0.408C186.375,37.712,186.456,37.887,186.503,38.074z"/>
	<path fill-rule="evenodd" clip-rule="evenodd" fill="#FEFEFE" d="M40.257,29.112c0.04-0.07,0.098-0.114,0.167-0.05
		c0.015,0.014-0.026,0.09-0.041,0.138C40.341,29.171,40.3,29.141,40.257,29.112z"/>
</g>
<g>
</g>
<g>
</g>
<g>
</g>
<g>
</g>
<g>
</g>
<g>
</g>
<g>
</g>
<g>
</g>
<g>
</g>
<g>
</g>
<g>
</g>
<g>
</g>
<g>
</g>
<g>
</g>
<g>
</g>
</svg>
