<?xml version="1.0" encoding="utf-8"?>
<!-- Generator: Adobe Illustrator 16.0.3, SVG Export Plug-In . SVG Version: 6.00 Build 0)  -->
<!DOCTYPE svg PUBLIC "-//W3C//DTD SVG 1.1//EN" "http://www.w3.org/Graphics/SVG/1.1/DTD/svg11.dtd">
<svg version="1.1" id="Layer_1" xmlns="http://www.w3.org/2000/svg" xmlns:xlink="http://www.w3.org/1999/xlink" x="0px" y="0px"
	 width="195.613px" height="38.985px" viewBox="0 0 195.613 38.985" enable-background="new 0 0 195.613 38.985"
	 xml:space="preserve">
<path fill-rule="evenodd" clip-rule="evenodd" fill="#40423D" d="M167.149,21.298c-0.813,1.053-1.974,1.604-3.066,2.271
	c-1.991,1.215-4.173,1.827-6.451,2.096c-1.08,0.129-2.19,0.11-3.282-0.072c-0.895-0.149-1.505-0.642-1.862-1.521
	c-0.983,0.798-2.101,1.256-3.313,1.495c-0.97,0.19-1.935,0.174-2.886-0.08c-0.796-0.212-1.471-0.642-1.929-1.333
	c-0.191-0.29-0.37-0.289-0.647-0.196c-0.656,0.218-1.282,0.495-1.89,0.822c-1.077,0.577-2.209,0.944-3.449,0.927
	c-1.22-0.017-2.148-0.766-2.393-1.969c-0.033-0.163-0.071-0.326-0.119-0.539c-0.301,0.241-0.561,0.46-0.832,0.664
	c-2.663,2.004-5.647,2.897-8.976,2.592c-0.264-0.024-0.527-0.077-0.786-0.136c-1.994-0.447-2.606-2.295-2.119-3.978
	c0.586-2.026,1.793-3.624,3.339-5.007c1.203-1.076,2.387-2.175,3.367-3.469c0.103-0.135,0.198-0.274,0.368-0.511
	c-0.625,0.068-1.152,0.126-1.683,0.181c-0.827,0.085-1.202-0.342-1.022-1.15c0.092-0.41,0.409-0.571,0.758-0.69
	c0.672-0.229,1.382-0.257,2.074-0.377c0.447-0.077,0.895-0.152,1.345-0.208c0.315-0.039,0.484-0.272,0.687-0.46
	c2.521-2.35,5.073-4.667,7.673-6.931c0.768-0.668,1.588-1.274,2.458-1.806c0.563-0.345,1.162-0.6,1.818-0.73
	c0.345-0.069,0.46,0.087,0.496,0.378c0.046,0.382-0.112,0.703-0.319,1.007c-0.453,0.671-1.081,1.17-1.674,1.706
	c-2.278,2.063-4.436,4.25-6.541,6.487c-0.041,0.043-0.077,0.09-0.193,0.229c0.893-0.098,1.688-0.177,2.479-0.271
	c2.861-0.34,5.724-0.647,8.593-0.918c2.868-0.271,5.737-0.515,8.613-0.691c0.257-0.016,0.434,0.03,0.637,0.188
	c0.689,0.537,1.401,1.047,2.196,1.634c-1.066,0.064-2.024,0.118-2.981,0.18c-2.703,0.174-5.398,0.458-8.094,0.725
	c-2.306,0.229-4.616,0.405-6.926,0.599c-1.575,0.133-3.152,0.244-4.728,0.39c-0.936,0.086-1.72,0.524-2.422,1.137
	c-1.58,1.376-2.919,2.972-4.254,4.573c-0.762,0.914-1.611,1.754-2.307,2.724c-0.294,0.408-0.553,0.839-0.701,1.322
	c-0.379,1.226,0.373,2.184,1.65,2.11c0.82-0.046,1.598-0.294,2.369-0.548c1.592-0.522,3.157-1.104,4.571-2.028
	c0.381-0.249,0.789-0.471,1.253-0.503c0.227-0.015,0.271-0.183,0.374-0.307c1.877-2.241,4.181-3.844,7.004-4.655
	c0.829-0.238,1.679-0.216,2.517-0.049c1.051,0.21,1.695,1.025,1.709,2.111c0.009,0.735,0.009,0.739,0.706,0.76
	c0.244,0.007,0.374,0.122,0.431,0.349c0.118,0.472-0.009,0.904-0.237,1.306c-0.304,0.534-0.71,0.993-1.142,1.427
	c-0.19,0.191-0.403,0.375-0.315,0.683c0.098,0.338,0.396,0.433,0.69,0.486c1.369,0.248,2.64-0.033,3.826-0.743
	c0.483-0.29,0.868-0.647,1.172-1.152c0.551-0.915,1.311-1.68,2.074-2.421c1.184-1.148,2.292-2.361,3.332-3.637
	c1.412-1.729,2.973-3.302,4.699-4.722c1.025-0.844,2.171-1.501,3.228-2.289c0.037-0.028,0.082-0.051,0.111-0.086
	c0.692-0.84,1.503-0.58,2.301-0.226c0.77,0.342,0.986,1.066,0.605,1.823c-0.923,1.838-2.262,3.335-3.813,4.659
	c-0.691,0.59-1.389,1.173-2.062,1.785c-1.314,1.195-2.905,1.888-4.536,2.492c-1.485,0.55-2.642,1.468-3.445,2.828
	c-0.19,0.324-0.363,0.659-0.389,1.045c-0.046,0.677,0.281,1.072,0.961,1.129c1.057,0.09,2.088-0.125,3.124-0.287
	c2.388-0.371,4.429-1.47,6.28-2.968c0.526-0.426,0.869-1.026,1.351-1.5c0.541-0.534,1.143-0.97,1.838-1.282
	c0.816-0.366,1.595-0.795,2.297-1.358c0.402-0.321,0.86-0.506,1.396-0.423c0.733,0.113,1.087,0.713,0.839,1.418
	c-0.161,0.462-0.521,0.728-0.913,0.97c-1.043,0.642-1.693,1.575-1.938,2.763c-0.229,1.117,0.35,1.943,1.472,2.082
	c2.337,0.29,4.592,0.053,6.651-1.211c0.119-0.073,0.229-0.163,0.337-0.252c0.766-0.628,1.595-1.158,2.477-1.608
	c0.778-0.396,0.976-0.792,0.824-1.627c-0.189-1.042-0.001-1.433,0.955-1.862c0.805-0.362,1.642-0.59,2.541-0.572
	c1.489,0.03,2.976,0.101,4.44,0.378c1.315,0.25,1.71,1.241,0.965,2.363c-0.254,0.382-0.572,0.71-0.925,0.996
	c-0.959,0.781-1.892,1.598-2.928,2.284c-0.12,0.08-0.35,0.139-0.293,0.31c0.059,0.182,0.289,0.14,0.455,0.129
	c0.608-0.037,1.217-0.096,1.825-0.127c1.191-0.063,2.338,0.188,3.445,0.594c0.491,0.18,0.91,0.127,1.345-0.107
	c0.581-0.315,1.073-0.746,1.606-1.244c0.105,0.415,0.195,0.769,0.287,1.123c0.044,0.168-0.076,0.262-0.166,0.364
	c-0.426,0.481-0.86,0.955-1.281,1.438c-0.615,0.707-1.393,0.932-2.289,0.763c-0.86-0.163-1.711-0.37-2.57-0.534
	c-1.343-0.256-2.675-0.173-3.997,0.165c-0.698,0.179-1.4,0.333-2.13,0.312c-0.423-0.014-0.813-0.083-1.031-0.512
	c-0.237-0.465-0.124-0.881,0.181-1.264c0.516-0.644,1.159-1.144,1.851-1.581c1.272-0.805,2.516-1.646,3.551-2.758
	c0.404-0.435,0.387-0.629-0.157-0.847c-0.784-0.315-1.603-0.427-2.438-0.259c-0.721,0.145-1.215,0.572-1.414,1.287
	c-0.359,1.285-1.188,2.128-2.384,2.668c-0.468,0.212-0.918,0.472-1.355,0.745c-2.01,1.255-4.155,2.141-6.525,2.438
	c-1.193,0.149-2.372,0.375-3.587,0.109c-2.107-0.461-3.077-1.91-2.646-4.038c0.021-0.104,0.028-0.211,0.043-0.316
	C167.221,21.343,167.185,21.32,167.149,21.298z M139.816,23.455c0.07-0.012,0.247-0.017,0.409-0.065
	c1.74-0.521,3.313-1.366,4.765-2.446c0.183-0.137,0.337-0.332,0.46-0.526c0.301-0.485,0.246-0.999-0.009-1.475
	c-0.227-0.421-0.656-0.428-1.074-0.398c-0.141,0.01-0.283,0.02-0.418,0.055c-1.932,0.499-3.462,1.619-4.753,3.098
	c-0.122,0.139-0.21,0.312-0.287,0.482C138.587,22.882,138.95,23.449,139.816,23.455z M158.324,17.92
	c0.69-0.058,1.284-0.243,1.841-0.53c1.474-0.758,2.749-1.789,3.923-2.948c0.479-0.473,0.938-0.968,1.196-1.607
	c0.096-0.238,0.148-0.498-0.036-0.71c-0.184-0.21-0.431-0.137-0.657-0.067c-0.745,0.233-1.376,0.672-1.965,1.162
	c-1.39,1.153-2.525,2.561-3.789,3.841C158.623,17.279,158.438,17.539,158.324,17.92z"/>
<path fill-rule="evenodd" clip-rule="evenodd" fill="#40423D" d="M30.957,22.387c-1.844,0.958-3.741,1.804-5.658,2.604
	c-1.526,0.636-3.096,0.863-4.73,0.628c-0.392-0.056-0.762-0.19-1.063-0.458c-0.126-0.116-0.211-0.14-0.354-0.024
	c-2.935,2.349-5.977,4.584-8.212,7.678C9.93,34.211,8.92,35.607,7.86,36.967c-0.463,0.595-0.959,1.155-1.611,1.558
	c-0.836,0.516-1.72,0.655-2.572,0.121c-0.83-0.521-0.947-1.398-0.87-2.289c0.151-1.757,0.961-3.254,1.944-4.666
	c2.172-3.112,4.589-6.035,7.085-8.892c0.325-0.371,0.673-0.731,0.886-1.242c-0.449,0.04-0.757,0.287-1.072,0.498
	c-1.366,0.914-2.749,1.8-4.187,2.6c-1.546,0.861-3.187,1.193-4.935,0.875c-2.112-0.384-2.78-1.521-2.45-3.664
	c0.249-1.624,1.043-3.032,1.881-4.415c1-1.65,2.127-3.21,3.309-4.733c0.095-0.123,0.187-0.248,0.311-0.415
	c-0.159-0.063-0.297-0.114-0.431-0.171c-0.418-0.177-0.833-0.364-1.206-0.625c-0.439-0.307-0.862-0.661-0.698-1.262
	c0.152-0.556,0.692-0.63,1.169-0.714C5.16,9.397,5.914,9.406,6.662,9.507c0.313,0.043,0.51-0.046,0.713-0.296
	c1.841-2.259,3.682-4.522,5.789-6.545c1.292-1.241,2.719-2.284,4.536-2.595c1.125-0.193,2.227,0.009,3.212,0.594
	c1.05,0.622,1.466,1.787,1.181,3.051c-0.523,2.319-1.927,4.06-3.626,5.63c-2,1.85-4.384,2.781-7.052,3.089
	c-0.451,0.052-0.91,0.19-1.351,0.146c-1.283-0.131-2.093,0.604-2.891,1.427c-2.031,2.089-3.195,4.647-4.003,7.392
	c-0.315,1.072,0.245,1.665,1.363,1.534c1.542-0.18,2.897-0.878,4.224-1.604c2.25-1.233,4.464-2.528,6.699-3.785
	c0.645-0.362,1.33-0.63,2.071-0.719c0.2-0.023,0.409-0.036,0.608-0.008c0.791,0.111,1.076,0.539,0.8,1.287
	c-0.529,1.436-1.45,2.633-2.491,3.723c-1.604,1.674-3.319,3.236-4.869,4.968c-1.857,2.076-3.554,4.252-4.597,6.869
	c-0.115,0.29-0.201,0.591-0.293,0.89c-0.037,0.116-0.104,0.258,0.022,0.348c0.147,0.104,0.265-0.026,0.372-0.107
	c0.428-0.322,0.79-0.713,1.138-1.117c0.942-1.092,1.875-2.191,2.825-3.275c1.354-1.547,2.771-3.031,4.466-4.217
	c2.384-1.67,4.465-3.677,6.506-5.734c1.025-1.035,2.107-2.012,3.169-3.01c0.378-0.354,0.781-0.679,1.232-0.938
	c0.543-0.312,1.131-0.27,1.571,0.1c0.542,0.457,0.628,0.82,0.366,1.545c-0.319,0.877-0.926,1.511-1.694,2.007
	c-0.923,0.593-1.852,1.176-2.711,1.86c-0.243,0.194-0.472,0.412-0.69,0.636c-0.186,0.191-0.27,0.441-0.155,0.692
	c0.111,0.243,0.375,0.292,0.606,0.282c0.31-0.013,0.622-0.07,0.925-0.14c0.812-0.188,1.579-0.508,2.311-0.897
	c1.933-1.028,3.928-1.927,5.913-2.847c0.654-0.304,1.197-0.73,1.54-1.387c0.139-0.263,0.354-0.48,0.604-0.65
	c0.497-0.337,1-0.188,1.125,0.392c0.213,0.979,0.067,1.915-0.631,2.676c-0.443,0.484-0.96,0.901-1.434,1.356
	c-0.216,0.206-0.438,0.432-0.448,0.747c-0.024,0.817,0.295,1.217,1.209,1.125c1.374-0.139,2.701-0.486,4.01-0.938
	c0.709-0.245,1.132-0.537,0.922-1.378c-0.09-0.356,0.032-0.748,0.126-1.112c0.201-0.775,0.794-1.137,1.564-0.969
	c0.219,0.048,0.364,0.188,0.444,0.382c0.106,0.259,0.21,0.524,0.272,0.796c0.147,0.655,0.14,0.659,0.794,0.428
	c2.241-0.794,4.434-1.7,6.538-2.816c1.147-0.609,2.122-1.373,2.653-2.613c0.181-0.424,0.543-0.611,1.033-0.544
	c0.505,0.069,0.829,0.289,0.96,0.809c0.184,0.745,0.041,1.396-0.462,1.967c-0.471,0.534-1.016,0.973-1.649,1.303
	c-1.285,0.668-2.496,1.431-3.454,2.55c-0.518,0.606-0.876,1.299-1.189,2.013c-0.608,1.381-1.725,1.949-3.142,2.105
	c-0.708,0.077-1.4,0.077-2.081-0.175c-0.698-0.259-1.289-0.658-1.655-1.316c-0.151-0.271-0.281-0.269-0.544-0.164
	c-2.297,0.923-4.664,1.53-7.162,1.496c-0.536-0.007-1.066-0.046-1.573-0.227c-0.892-0.316-1.234-1.093-0.836-1.953
	c0.188-0.411,0.438-0.792,0.66-1.188c0.011-0.038,0.042-0.096,0.031-0.107C31.032,22.299,30.988,22.332,30.957,22.387z
	 M9.743,10.229c0.738,0.062,1.358-0.008,1.981-0.044c1.558-0.089,3.015-0.491,4.325-1.373c1.499-1.008,2.635-2.308,3.202-4.04
	c0.436-1.333-0.546-2.368-1.915-2.067c-1.152,0.255-2.084,0.898-2.933,1.681c-1.252,1.154-2.215,2.548-3.243,3.889
	C10.689,8.892,10.248,9.532,9.743,10.229z M47.031,21.536c-1.353,0.542-2.707,1.084-4.061,1.623
	c-0.207,0.082-0.145,0.195-0.063,0.328c0.202,0.324,0.502,0.397,0.852,0.348C45.226,23.626,46.197,22.693,47.031,21.536z"/>
<path fill-rule="evenodd" clip-rule="evenodd" fill="#40423D" d="M63.487,13.302c1.339-0.151,2.566-0.289,3.793-0.43
	c2.706-0.312,5.417-0.581,8.132-0.815c2.823-0.243,5.65-0.467,8.482-0.533c4.293-0.101,8.587-0.142,12.869,0.269
	c1.04,0.099,2.01,0.436,2.872,1.178c-0.722,0.305-1.427,0.386-2.135,0.289c-2.121-0.292-4.246-0.279-6.377-0.199
	c-1.988,0.075-3.977,0.121-5.966,0.148c-3.338,0.046-6.663,0.258-9.981,0.605c-3.005,0.313-6.015,0.593-9.032,0.79
	c-0.811,0.053-1.622,0.138-2.435,0.192c-1.068,0.07-1.933,0.542-2.706,1.262c-1.429,1.329-2.642,2.848-3.91,4.32
	c-0.5,0.581-1.047,1.122-1.463,1.774c-0.229,0.358-0.431,0.727-0.524,1.145c-0.18,0.807,0.36,1.525,1.189,1.564
	c0.767,0.035,1.482-0.214,2.197-0.442c1.402-0.449,2.755-1.004,4.024-1.772c0.462-0.279,0.807-0.568,1.096-1.044
	c0.789-1.293,1.969-2.22,3.206-3.058c1.393-0.943,2.848-1.765,4.552-2.01c0.673-0.097,1.347-0.074,2.007,0.085
	c1.039,0.25,1.626,1.029,1.635,2.12c0.006,0.715,0.006,0.721,0.69,0.729c0.268,0.003,0.399,0.13,0.453,0.38
	c0.103,0.473-0.028,0.9-0.26,1.302c-0.3,0.518-0.693,0.966-1.114,1.39c-0.202,0.202-0.434,0.4-0.319,0.724
	c0.113,0.321,0.416,0.409,0.713,0.461c1.336,0.233,2.58-0.037,3.742-0.718c0.229-0.134,0.451-0.282,0.675-0.424
	c0.09-0.057,0.199-0.096,0.199-0.234c-0.004-0.805,0.565-1.253,1.084-1.728c0.51-0.465,1.024-0.928,1.425-1.495
	c0.226-0.319,0.424-0.656,0.636-0.983c0.18-0.276,0.347-0.56,0.546-0.821c0.377-0.497,0.843-0.873,1.514-0.741
	c0.625,0.122,0.833,0.648,1.026,1.173c0.311,0.845,0.101,1.56-0.506,2.194c-0.481,0.501-1.019,0.925-1.643,1.237
	c-0.493,0.247-0.876,0.603-1.058,1.139c-0.223,0.659,0.148,1.213,0.844,1.239c0.695,0.024,1.322-0.24,1.919-0.551
	c1.4-0.728,2.612-1.723,3.811-2.729c0.458-0.385,0.709-0.897,0.783-1.505c0.062-0.496,0.242-0.965,0.412-1.438
	c0.306-0.851,1.497-1.472,2.443-0.856c0.09,0.06,0.191,0.105,0.288,0.158c1.086,0.599,1.246,1.064,0.758,2.211
	c-0.188,0.438-0.458,0.816-0.791,1.156c-0.33,0.336-0.619,0.703-0.815,1.139c-0.174,0.388-0.125,0.707,0.172,1.026
	c0.945,1.005,3.045,1.045,4.024,0.064c0.062-0.062,0.081-0.127,0.102-0.201c0.194-0.691,0.642-1.211,1.158-1.677
	c1.248-1.127,2.525-2.213,4.201-2.666c1.054-0.284,1.694,0.131,1.884,1.212c0.107,0.605-0.141,1.048-0.728,1.238
	c-0.355,0.115-0.723,0.207-1.091,0.269c-0.877,0.149-1.623,0.555-2.299,1.106c-0.351,0.287-0.678,0.634-0.483,1.123
	c0.201,0.502,0.587,0.848,1.163,0.903c0.384,0.037,0.769-0.013,1.088-0.222c0.802-0.527,1.694-0.875,2.528-1.334
	c0.354-0.196,0.706-0.415,1.013-0.677c0.75-0.64,0.753-1.72-0.006-2.332c-0.487-0.393-0.674-0.849-0.524-1.444
	c0.146-0.58,0.585-0.833,1.125-0.921c0.492-0.081,0.985-0.207,1.489-0.075c1.204,0.314,1.76,1.332,1.491,2.78
	c-0.088,0.469-0.358,0.931-0.023,1.395c0.431,0.599,1.057,0.916,1.741,1.122c0.332,0.1,0.671,0.099,1.021,0.024
	c0.632-0.135,0.934-0.002,1.037,0.407c0.131,0.507-0.217,1.189-0.688,1.34c-1.194,0.379-2.343,0.293-3.443-0.331
	c-0.395-0.223-0.802-0.416-1.254-0.514c-0.383-0.083-0.697-0.004-1.012,0.219c-1.149,0.817-2.341,1.565-3.644,2.119
	c-0.801,0.34-1.631,0.538-2.497,0.6c-1.195,0.084-2.04-0.495-2.666-1.434c-0.174-0.259-0.273-0.293-0.533-0.145
	c-1.152,0.654-2.384,0.952-3.699,0.632c-0.981-0.239-1.825-0.713-2.384-1.609c-0.286-0.457-0.582-0.523-1.028-0.224
	c-0.544,0.367-1.063,0.773-1.588,1.169c-1.263,0.95-2.652,1.587-4.247,1.712c-1.642,0.127-2.907-0.523-3.856-1.868
	c-1.408,1.193-3.067,1.764-4.915,1.75c-1.407-0.012-2.665-0.413-3.483-1.671c-0.139-0.214-0.291-0.133-0.442-0.085
	c-0.688,0.213-1.346,0.501-1.981,0.844c-1.073,0.581-2.207,0.951-3.447,0.934c-1.143-0.016-2.006-0.639-2.345-1.729
	c-0.031-0.101-0.06-0.203-0.101-0.341c-0.26,0.201-0.503,0.392-0.752,0.578c-2.238,1.676-4.747,2.398-7.534,2.148
	c-0.092-0.008-0.186-0.02-0.278-0.034c-2.11-0.317-2.659-2.057-2.061-3.794c0.606-1.758,1.781-3.065,3.13-4.261
	c0.893-0.792,1.736-1.63,2.456-2.585c0.073-0.096,0.136-0.2,0.225-0.335c-0.532-0.057-0.999,0.095-1.476,0.101
	c-0.356,0.006-0.653-0.016-0.739-0.456c-0.082-0.427-0.03-0.778,0.39-0.999c0.396-0.209,0.834-0.257,1.266-0.326
	c0.51-0.081,1.021-0.157,1.534-0.217c0.39-0.045,0.682-0.226,0.973-0.492c2.456-2.256,4.851-4.585,7.483-6.644
	c0.702-0.55,1.444-1.048,2.337-1.26c0.532-0.126,0.741,0.069,0.607,0.604c-0.122,0.49-0.451,0.862-0.812,1.186
	c-1.695,1.516-3.315,3.109-4.91,4.73C64.609,12.123,64.086,12.678,63.487,13.302z M71.75,18.54c-0.063,0.01-0.268,0.022-0.463,0.069
	c-1.814,0.441-3.234,1.518-4.511,2.817c-0.242,0.247-0.429,0.537-0.551,0.864c-0.223,0.602,0.104,1.117,0.741,1.159
	c0.218,0.015,0.437,0,0.651-0.065c1.722-0.522,3.277-1.367,4.723-2.425c0.216-0.158,0.386-0.366,0.514-0.604
	C73.31,19.493,72.801,18.533,71.75,18.54z"/>
<path fill-rule="evenodd" clip-rule="evenodd" fill="#40423D" d="M180.16,5.849c0.474-0.006,0.882,0.293,0.955,0.781
	c0.054,0.353,0.219,0.606,0.467,0.833c0.28,0.257,0.272,0.575-0.055,0.787c-0.406,0.264-0.859,0.45-1.342,0.519
	c-0.282,0.04-0.559-0.033-0.766-0.261c-0.305-0.334-0.611-0.668-0.914-1.004c-0.068-0.076-0.144-0.139-0.107-0.278
	C178.53,6.708,179.606,5.856,180.16,5.849z"/>
<path fill-rule="evenodd" clip-rule="evenodd" fill="#E53832" d="M143.417,29.277c-0.012,0.161-0.063,0.286-0.24,0.296
	c-0.152,0.008-0.227-0.085-0.244-0.229c-0.021-0.164,0.046-0.288,0.208-0.314C143.319,29,143.38,29.134,143.417,29.277z"/>
<path fill-rule="evenodd" clip-rule="evenodd" fill="#FEFEFE" d="M30.957,22.387c0.031-0.056,0.075-0.088,0.128-0.039
	c0.011,0.011-0.02,0.069-0.031,0.107C31.021,22.432,30.99,22.41,30.957,22.387z"/>
</svg>
