<?xml version="1.0" encoding="utf-8"?>
<!-- Generator: Adobe Illustrator 16.0.0, SVG Export Plug-In . SVG Version: 6.00 Build 0)  -->
<!DOCTYPE svg PUBLIC "-//W3C//DTD SVG 1.1//EN" "http://www.w3.org/Graphics/SVG/1.1/DTD/svg11.dtd">
<svg version="1.1" id="Layer_1" xmlns="http://www.w3.org/2000/svg" xmlns:xlink="http://www.w3.org/1999/xlink" x="0px" y="0px"
	 width="108.145px" height="108.145px" viewBox="0 0 108.145 108.145" enable-background="new 0 0 108.145 108.145"
	 xml:space="preserve">
<g>
	<linearGradient id="SVGID_1_" gradientUnits="userSpaceOnUse" x1="52.7354" y1="0.582" x2="55.4024" y2="107.248">
		<stop  offset="0" style="stop-color:#E8EDF0"/>
		<stop  offset="0" style="stop-color:#EDEEEF"/>
		<stop  offset="0" style="stop-color:#EFEFEF"/>
		<stop  offset="0.4036" style="stop-color:#F3F2E8"/>
		<stop  offset="0.9961" style="stop-color:#FFFAD4"/>
		<stop  offset="1" style="stop-color:#FFFAD4"/>
	</linearGradient>
	<rect fill-rule="evenodd" clip-rule="evenodd" fill="url(#SVGID_1_)" width="108.145" height="108.145"/>
	<g>
		<linearGradient id="SVGID_2_" gradientUnits="userSpaceOnUse" x1="73.5566" y1="3.5811" x2="17.759" y2="97.6529">
			<stop  offset="0" style="stop-color:#EDA68E"/>
			<stop  offset="0.9839" style="stop-color:#FFE2C3"/>
		</linearGradient>
		<polygon fill-rule="evenodd" clip-rule="evenodd" fill="url(#SVGID_2_)" points="58.215,29.429 58.215,29.444 58.229,29.439 		"/>
		<linearGradient id="SVGID_3_" gradientUnits="userSpaceOnUse" x1="54.8027" y1="-7.5425" x2="-5.6972" y2="94.4573">
			<stop  offset="0" style="stop-color:#EDA68E"/>
			<stop  offset="0.9839" style="stop-color:#FFE2C3"/>
		</linearGradient>
		<path fill-rule="evenodd" clip-rule="evenodd" fill="url(#SVGID_3_)" d="M28.807,16.793c-0.054,0.004-0.107,0.007-0.16,0.011
			c0.031,0.478-0.061,1.008,0.119,1.42c0.393,0.898,0.986,1.668,1.979,2.019c0.114,0.039,0.271,0.194,0.267,0.29
			c-0.024,0.681,0.462,0.922,0.951,1.161c0.531,0.261,1.316,0.315,1.316,0.315c-0.438,0.959-1.939,1.327-2.28,1.589
			c-0.2,0.155-0.431,0.373-0.483,0.6c-0.289,1.239-0.568,2.483-0.761,3.74c-0.104,0.686-0.08,1.402-0.024,2.099
			c0.109,1.335,0.258,2.668,0.438,3.994c0.126,0.929,0.332,1.847,0.502,2.769c0.182,0.98,0.357,1.961,0.551,2.938
			c0.036,0.182,0.109,0.378,0.225,0.518c0.39,0.469,0.816,0.907,1.211,1.373c0.72,0.853,1.463,1.679,2.371,2.341
			c0.409,0.296,0.856,0.368,1.314,0.2c0.95-0.351,1.886-0.731,2.682-1.392c0.712-0.591,1.455-1.142,2.163-1.735
			c0.14-0.117,0.265-0.356,0.256-0.533c-0.046-0.981-0.09-1.967-0.221-2.938c-0.245-1.797-0.64-3.578-0.797-5.382
			c-0.113-1.312,0.01-2.652,0.11-3.974c0.106-1.402,0.483-2.751,1.078-4.029c0.584-0.885-0.01-0.764-0.376-1.177
			c-0.625-0.208-1.015-1.111-0.875-1.375c0.665,0.042,1.751,0.479,2.347,0.503c0.312,0.013,0.791-0.141,0.896-0.44
			c0.155-0.442,0.403-0.853,0.599-1.281c0.144-0.317,0.323-0.632,0.386-0.968c0.087-0.453-0.194-0.627,0.233-0.839
			c0.33-0.166,0.745-0.235,0.594-0.559c-0.27-0.575-0.587-1.568-0.594-2.166c0,0,0.241-0.78,0.418-1.23
			c0.188-0.482,0.194-1.048,0.217-1.579c0.016-0.342,0.115-0.605,0.285-0.903c0.984-1.726,1.392-3.243,0.105-4.809
			c-0.909-1.104-1.915-2.153-3.474-2.203c-0.824-0.026-1.671,0.067-2.479,0.239c-1.659,0.357-3.185,1.089-4.65,1.93
			c-0.754,0.433-1.537,0.686-2.416,0.701c-0.546,0.011-1.103,0.105-1.632,0.245c-1.731,0.455-2.885,2.624-2.302,4.31
			c0.293,0.849,0.835,1.541,1.495,2.141c0.563,0.511,0.934,1.127,0.994,1.89c0.014,0.168-0.09,0.409-0.221,0.513
			C30.407,17.731,29.523,17.594,28.807,16.793z"/>
		<linearGradient id="SVGID_4_" gradientUnits="userSpaceOnUse" x1="71.8027" y1="2.541" x2="11.3028" y2="104.5408">
			<stop  offset="0" style="stop-color:#EDA68E"/>
			<stop  offset="0.9839" style="stop-color:#FFE2C3"/>
		</linearGradient>
		<path fill-rule="evenodd" clip-rule="evenodd" fill="url(#SVGID_4_)" d="M34.36,93.785c-4.519-8.675-8.055-18.44-8.925-28.23
			c-0.123-1.376,0.025-2.774-0.044-4.158c-0.13-2.585,0.309-5.53,0.98-8.029c0.714-2.655,1.933-5.136,2.964-7.672
			c1.056-2.6,1.215-4.504,0.834-7.282c-0.114-0.826-0.228-1.655-0.402-2.47c-0.259-1.21-0.582-2.406-0.857-3.612
			c-0.064-0.288-0.025-0.599-0.078-0.89c-0.356-1.958-0.323-3.912,0.01-5.869c0.088-0.521,0.142-1.052,0.217-1.621
			c-0.288,0-0.539-0.055-0.754,0.01c-0.691,0.209-1.473,0.322-2.021,0.736c-0.582,0.438-1.021,1.139-1.102,1.938
			c-0.125,1.261-0.205,2.525-0.333,3.784c-0.146,1.45-0.323,2.897-0.488,4.345c-0.055,0.475-0.125,0.946-0.167,1.421
			c-0.119,1.333-0.234,2.668-0.335,4.003c-0.029,0.4-0.003,0.805-0.002,1.207c0.005,1.023-0.099,2.062,0.034,3.068
			c0.293,2.227,0.734,4.435,1.051,6.658c0.305,2.136-0.139,4.271-0.331,6.394c-0.181,1.987-0.183,3.999-0.078,5.993
			c0.306,5.879,1.907,11.522,3.053,17.268c0.898,4.51,1.593,9.07,2.138,13.635c0.277,2.327,0.568,4.676,0.695,7.014
			c0.049,0.92,0.061,1.858,0.061,1.858c0.289,0.183,1.559,0.338,2.668,0.481c1.383,0.178,3.853,0.547,3.853,0.547
			s2.083,3.663,2.195,3.709c0.036-0.125,2.667,0,2.667,0c-0.804-1.531-2.277-3.987-3.064-5.528
			C37.195,99.354,35.989,96.912,34.36,93.785z M28.863,35.473c0.02-0.058,0.045-0.112,0.067-0.168
			c0.042,0.014,0.083,0.028,0.125,0.043c0.071,0.217,0.142,0.436,0.213,0.652c0.14,0.418,0.286,0.833,0.417,1.254
			c0.042,0.139,0.06,0.291,0.057,0.437c-0.023,1.128,0.04,2.267-0.107,3.379c-0.201,1.516-0.547,3.017-1.355,4.356
			c-0.051,0.083-0.133,0.146-0.285,0.311c0.058-0.867,0.158-1.608,0.143-2.347c-0.028-1.38-0.102-2.761-0.199-4.139
			C27.841,37.885,28.426,36.699,28.863,35.473z M33.075,103.222c-0.455-0.054-1.351-0.306-1.88-0.447c0,0-0.004-1.999-0.055-2.84
			c-0.092-1.517-0.231-3.03-0.333-4.546c-0.074-1.1-0.116-2.2-0.181-3.301c-0.049-0.832-0.113-1.663-0.166-2.494
			c-0.012-0.168-0.002-0.336-0.002-0.504c0.044-0.006,0.088-0.013,0.132-0.019c0.075,0.168,0.158,0.333,0.222,0.505
			c0.586,1.574,1.13,3.165,1.762,4.721c0.441,1.087,1.025,2.115,1.496,3.192c0.512,1.173,0.967,2.372,1.438,3.562
			c0.06,0.15,0.968,1.949,1.188,2.328C36.238,103.317,34.135,103.401,33.075,103.222z"/>
		<linearGradient id="SVGID_5_" gradientUnits="userSpaceOnUse" x1="89.6357" y1="13.2549" x2="29.6158" y2="114.4453">
			<stop  offset="0" style="stop-color:#EDA68E"/>
			<stop  offset="0.9839" style="stop-color:#FFE2C3"/>
		</linearGradient>
		<path fill-rule="evenodd" clip-rule="evenodd" fill="url(#SVGID_5_)" d="M82.15,25.854C82.074,25.893,82.235,25.887,82.15,25.854
			L82.15,25.854z"/>
		<linearGradient id="SVGID_6_" gradientUnits="userSpaceOnUse" x1="95.2344" y1="16.439" x2="34.7325" y2="118.4419">
			<stop  offset="0" style="stop-color:#EDA68E"/>
			<stop  offset="0.9839" style="stop-color:#FFE2C3"/>
		</linearGradient>
		<path fill-rule="evenodd" clip-rule="evenodd" fill="url(#SVGID_6_)" d="M79.844,48.619c0.039-0.026,0.049-0.105,0.06-0.163
			c0.159-0.879,0.302-1.761,0.479-2.636c0.28-1.401,0.583-2.799,0.878-4.196c0.102-0.473,0.387-0.763,0.836-0.968
			c0.43-0.196,0.807-0.507,1.207-0.767c-0.016-0.038-0.032-0.077-0.048-0.116c-0.108,0-0.218-0.015-0.323,0.003
			c-0.514,0.083-1.025,0.184-1.539,0.261c-0.143,0.021-0.309,0.023-0.437-0.03c-0.662-0.278-1.255-1.464-1.086-2.157
			c0.362-1.489,0.736-2.977,1.093-4.468c0.041-0.171,0.005-0.36,0.005-0.54c-0.058-0.006-0.116-0.012-0.175-0.017
			c-0.049,0.071-0.119,0.134-0.146,0.212c-0.303,0.878-0.594,1.759-0.896,2.636c-0.238,0.688-0.456,1.386-0.74,2.055
			c-0.529,1.247-1.097,2.479-1.655,3.714c-0.313,0.69-0.606,1.394-0.974,2.054c-0.354,0.639,0.468,0.512,0.468,0.512
			c0.357,0.014,0.665,0.884,0.762,1.174c0.464,1.382,0.931,2.763,1.376,4.151c0.14,0.438,0.209,0.898,0.328,1.344
			c0.026,0.098,0.133,0.171,0.203,0.256c0.057-0.104,0.16-0.209,0.16-0.312c-0.002-0.206-0.064-0.411-0.094-0.617
			C79.512,49.514,79.301,48.996,79.844,48.619z M79.418,47.989c-0.061-0.258-0.124-0.515-0.182-0.772
			c-0.163-0.74-0.307-1.487-0.494-2.223c-0.109-0.425-0.291-0.832-0.433-1.249c-0.038-0.111-0.067-0.232-0.068-0.349
			c-0.005-1.237,0.503-2.332,0.937-3.578c0.504,0.502,0.822,0.879,0.763,1.551c-0.115,1.328-0.103,2.669-0.179,4.002
			C79.713,46.24,79.603,47.106,79.418,47.989z"/>
		<linearGradient id="SVGID_7_" gradientUnits="userSpaceOnUse" x1="160.4775" y1="-102.7188" x2="-392.8184" y2="830.1091">
			<stop  offset="0" style="stop-color:#EDA68E"/>
			<stop  offset="0.9839" style="stop-color:#FFE2C3"/>
		</linearGradient>
		<path fill-rule="evenodd" clip-rule="evenodd" fill="url(#SVGID_7_)" d="M85.753,38.707c-0.491-1.916-1.047-3.815-1.524-5.736
			c-0.396-1.598-0.748-3.209-1.116-4.814l0.005,0.002c0.007-0.264-0.262-2.109-0.359-2.277c-0.099-0.17-4.054-2.074-5.965-2.297
			c-0.536-0.063-0.996-0.249-1.398-0.623c-1.278-1.184-1.874-2.692-2.1-4.371c-0.136-1.021,0.295-1.959,0.528-2.923
			c0.153-0.635,0.489-1.259,0.494-1.888c0.009-1.487-0.147-2.948-0.993-4.277c-0.398-0.627-0.774-1.183-1.469-1.482
			c-0.245-0.105-0.472-0.254-0.711-0.377c-0.341-0.174-0.684-0.288-1.067-0.102c-0.114,0.056-0.261,0.05-0.394,0.063
			c-1.262,0.109-2.525,0.207-3.784,0.328c-1.282,0.123-2.559,0.263-3.753-0.425c-0.133-0.077-0.332-0.044-0.5-0.062
			c0.045,0.174,0.046,0.379,0.145,0.516c0.232,0.32,0.512,0.608,0.815,0.96c-0.543,0.066-1.041,0.234-1.493,0.151
			c-0.44-0.081-0.834-0.419-1.338-0.693c0.434,1.296,1.358,2.076,2.4,2.875c-0.165-0.018-0.225-0.037-0.277-0.026
			c-0.174,0.032-0.345,0.077-0.517,0.116c0.125,0.137,0.226,0.334,0.381,0.401c0.381,0.165,0.784,0.284,1.185,0.396
			c0.243,0.067,0.323,0.183,0.234,0.421c-0.148,0.405-0.643,1.921-0.799,2.321c0,0,0.042,0.417,0.199,0.725
			c0.123,0.241,0.115,0.593,0.014,0.825c-0.205,0.474-0.469,0.941-0.801,1.334c-0.33,0.39-0.234,0.629,0.023,0.998
			c0.252,0.361,0.489,0.087,0.504,0.534c0.04,1.334,0.645,2.032,0.853,2.646c0.131,0.392-0.02,0.717,0.125,1.104
			c0.11,0.299,0.284,0.439,0.677,0.619c0.176,0.081,0.326,0.008,0.609-0.016c0.375-0.031,0.693-0.146,0.693-0.146l0.072,1.708
			c-0.528,0.11-1.023,0.317-1.505,0.559c-1.835,0.921-3.683,1.851-5.384,3.004c-0.245,0.166-0.42,0.346-0.234,0.66
			c0.152-0.077,0.324-0.131,0.484-0.208c0.637-0.306,1.273-0.614,1.91-0.92c0.438-0.21,0.865-0.438,1.296-0.661
			c1.573-0.817,2.964-2.142,5.131-1.851c0.526,0.07,0.916,0.125,1.416,0.542c0.074,0.063,0.425,0.763,0.425,0.763
			c0.039-0.011,0.078-0.154,0.062-0.224c-0.078-0.327-0.246-0.635-0.495-0.861c-0.414-0.375-0.866-0.626-1.407-0.698
			c-0.146-0.02-0.604-0.104-1.292-0.146c-0.012-0.001-0.141-1.802-0.141-1.802c0.974-0.709,2.129-1.609,3.37-2.406
			c0,0,2.319-1.576,3.335-1.792c0.371-0.079,0.078,0.248,0.264,0.582c0.65,1.172,1.334,2.324,1.991,3.492
			c0.071,0.129,0.085,0.313,0.067,0.464c-0.059,0.459,0.058,0.838,0.009,1.296c-0.015,0.15-0.134,0.386-0.086,0.542
			c0.118-0.11,0.281-0.196,0.349-0.332c0.161-0.322,0.277-0.667,0.394-0.961c0.659,0.099,1.228,0.223,1.802,0.264
			c1.441,0.1,3.012,0.851,4.425,1.443c0.104,0.043,0.207,0.086,0.308,0.128c0.13,0.054,0.357,0.357,0.479,1.136
			c-0.002,0.016-0.01,0.03-0.007,0.045c0.022,0.172,0.046,0.345,0.068,0.518c0.001,0.019,0.004,0.033,0.005,0.053h0.002
			c0.117,0.912,0.241,1.823,0.422,2.723c0.253,1.25,0.586,2.481,0.885,3.722c0.115,0.477,0.117,1.033,0.377,1.413
			c0.579,0.848,0.703,1.816,0.969,2.754c0.095,0.332,0.469,1.627,0.663,2.177c-0.111,0.706-0.221,1.415-0.269,2.127
			c-0.129,1.896-0.203,3.795-0.342,5.69c-0.059,0.814-0.206,1.623-0.337,2.431c-0.118,0.728-0.269,1.45-0.433,2.323
			c-0.539-0.255-0.976-0.549-1.455-0.669c-0.857-0.216-1.737-0.351-2.614-0.469c-0.266-0.036-0.468-0.054-0.638-0.295
			c-0.083-0.118-0.287-0.188-0.445-0.208c-0.35-0.043-0.709-0.015-1.059-0.059c-0.528-0.068-1.057-0.155-1.578-0.268
			c-0.361-0.077-0.786-0.119-1.044-0.34c-0.505-0.433-0.919-0.972-1.359-1.478c-0.359-0.414-0.464-0.907-0.306-1.425
			c0.148-0.482,0.201-0.771,0.461-1.463c0.166-0.441,0.597-1.307,0.597-1.307c0.007,0.079-0.328,0.385-0.385,0.453
			c-0.138,0.166-0.271,0.333-0.401,0.503c-0.737,0.948-1.488,1.913-2.046,2.979c-0.353,0.673-0.604,1.4-0.878,2.106
			c-0.11,0.285-0.291,0.412-0.6,0.438c-1.813,0.153-3.624,0.317-5.436,0.486c-0.277,0.025-0.552,0.091-0.825,0.152
			c-0.253,0.058-0.498,0.155-0.753,0.199c-0.438,0.074-0.883,0.12-1.323,0.179c-0.192,0.025-0.383,0.063-0.575,0.073
			c-0.27,0.016-0.381-0.093-0.305-0.381c0.174-0.648,0.326-1.301,0.491-1.95c0.416-1.626,0.759-3.274,1.495-4.801
			c0.289-0.598,0.474-1.174,0.451-1.896c-0.047-1.575,0.104-3.157,0.196-4.735c0.04-0.698,0.132-1.394,0.207-2.09
			c0.05-0.457,0.112-0.913,0.161-1.371c0.016-0.144,0.004-0.291,0.004-0.438c-0.055-0.015-0.109-0.029-0.164-0.043
			c-0.203,0.427-0.485,0.835-0.596,1.285c-0.372,1.515-0.666,3.049-0.759,4.613c-0.012,0.207-0.04,0.415-0.079,0.619
			c-0.181,0.92-0.375,1.838-0.551,2.758c-0.177,0.928-0.275,1.831-0.896,2.661c-1.4,1.871-2.674,3.838-3.986,5.774
			c-0.424,0.623-0.811,1.27-1.197,1.882c-0.449-0.325-0.87-0.601-1.259-0.917c-0.571-0.468-1.265-0.636-1.938-0.869
			c-0.519-0.18-0.521-0.221-0.216-0.686c0.919-1.4,1.667-2.884,2.36-4.41c1-2.2,1.622-4.6,3.27-6.478
			c0.16-0.185,0.246-0.44,0.348-0.672c0.033-0.078,0.006-0.183,0.006-0.301c-0.193,0.042-0.328,0.072-0.496,0.11
			c-0.029-0.522-0.053-1.01-0.084-1.497c-0.049-0.803-0.158-1.606-0.141-2.407c0.05-2.372,0.148-4.742,0.229-7.112
			c-0.094,0.037-0.227,0.057-0.256,0.122c-0.196,0.457-0.451,0.91-0.527,1.391c-0.102,0.626-0.044,1.276-0.072,1.916
			c-0.075,1.631-0.154,3.262-0.243,4.893c-0.058,1.053-0.136,2.104-0.208,3.156c-0.008,0.102-0.029,0.207-0.067,0.301
			c-0.192,0.451-0.403,0.894-0.586,1.349c-0.358,0.9-0.723,1.799-1.047,2.712c-0.394,1.105-0.669,2.258-1.136,3.328
			c-0.559,1.279-1.26,2.496-1.911,3.731c-0.149,0.284-0.202,0.472,0.162,0.63c0.192,0.084,0.354,0.269,0.491,0.438
			c0.162,0.199,0.037,0.506-0.188,0.518c-0.064-0.089-0.133-0.179-0.197-0.266c-0.505,0.289-0.723,0.222-0.982-0.299
			c-0.064-0.132-0.111-0.275-0.154-0.418c-0.269-0.868-0.533-1.738-0.8-2.607c-0.378-1.222-0.835-2.425-1.118-3.667
			c-0.491-2.149-0.883-4.32-1.3-6.485c-0.443-2.302-0.741-4.623-0.755-6.971c-0.008-1.162,0.076-2.325,0.045-3.485
			c-0.041-1.493-0.165-2.984-0.771-4.378c-0.123-0.283-0.334-0.588-0.588-0.74c-0.377-0.226-0.817-0.381-1.251-0.467
			c-1.558-0.311-1.292-0.459-1.997,1.037c-0.529,1.117-0.648,2.344-0.853,3.55c-0.31,1.823-0.396,3.657-0.195,5.482
			c0.256,2.335,0.633,4.657,0.979,6.981c0.318,2.142,0.495,4.305,0.988,6.42c0.217,0.929,0.316,1.883,0.509,2.817
			c0.419,2.044,0.505,4.113,0.468,6.188c-0.032,1.737-0.15,3.474-0.244,5.211c-0.02,0.386,0.045,2.3-0.102,2.675
			c-0.165-0.24-0.646-0.981-0.724-1.103c-0.567-0.893-1.13-1.79-1.703-2.68c-0.813-1.261-1.255-1.973-2.173-3.929
			c-0.447-0.953-2.309-5.185-2.276-5.07c0.224,0.787,0.46,1.572,0.708,2.352c2.703,8.531,6.986,16.007,11.668,23.582
			c1.344,2.176,2.618,4.394,3.927,6.59c4.09,6.863,9.034,13.097,13.757,19.523c1.117,1.521,2.071,3.063,3.078,4.31
			c0.064,0.081,0.682-0.001,0.592-0.062c-0.533-0.357-1.107-1.012-1.429-1.732c-0.056-0.121-0.104-0.246-0.202-0.479
			c0.805,0.158,1.492,0.271,2.166,0.438c0.363,0.091,0.508-0.036,0.553-0.362c0.02-0.146,0.02-0.296,0.017-0.444
			c-0.013-0.612-0.027-1.227-0.044-1.839c-0.003-0.104-0.005-0.208-0.021-0.311c-0.063-0.411,0.024-0.471,0.448-0.44
			c0.481,0.035,0.971-0.018,1.453,0.026c0.211,0.02,0.563,0.154,0.587,0.284c0.073,0.401,0.366,0.463,0.642,0.596
			c0.288,0.14,0.623,0.229,0.691,0.629c0.013,0.07,0.147,0.164,0.23,0.169c0.363,0.019,0.729,0.017,1.094,0.005
			c0.556-0.02,1.115-0.025,1.666-0.096c0.212-0.027,0.438-0.183,0.591-0.343c0.108-0.113,0.101-0.334,0.152-0.505
			c0.091-0.305,0.173-0.607,0.591-0.622c0.078-0.003,0.21-0.171,0.213-0.268c0.035-0.722,0.096-1.448,0.048-2.168
			c-0.057-0.876-0.291-1.745-0.305-2.618c-0.035-2.128-0.001-4.257,0.036-6.385c0.016-0.907,0.141-1.814,0.162-2.723
			c0.038-1.521,0.036-3.041,0.045-4.563c0.004-0.464,0.033-0.913-0.063-1.394c-0.188-0.936-0.217-1.904-0.296-2.861
			c-0.04-0.476-0.022-0.955-0.065-1.43c-0.197-2.213-0.404-4.424-0.611-6.634c-0.031-0.342-0.072-0.683-0.096-1.024
			c-0.053-0.743-0.176-1.492-0.13-2.229c0.128-2.063,0.323-4.124,0.499-6.185c0.051-0.595,0.12-1.188,0.191-1.779
			c0.02-0.16,0.046-0.34,0.132-0.466c0.421-0.609,0.866-1.2,1.293-1.805c0.11-0.156,0.157-0.363,0.284-0.501
			c0.276-0.298,0.551-0.748,0.887-0.809c0.631-0.114,0.652-0.507,0.688-0.948c0.048-0.61,0.076-1.222,0.101-1.833
			c0.011-0.302,0.147-0.448,0.448-0.398c0.188,0.032,0.373,0.094,0.555,0.152c0.631,0.206,0.822,0.111,0.891-0.527
			c0.26-2.459,0.543-4.917,0.74-7.381c0.146-1.848,0.176-3.704,0.238-5.557C86.26,40.382,85.818,38.961,85.753,38.707z
			 M64.645,97.456c-0.075,0.263-0.172,0.521-0.261,0.78c-0.168-0.188-0.364-0.356-0.501-0.565
			c-4.029-6.146-7.927-12.365-11.705-18.67c-0.491-0.819-0.979-1.642-1.46-2.466c-1.259-2.153-2.529-4.271-4.141-7.673
			c0,0-0.156-1.155-0.258-2.297c-0.419-4.709-0.294-9.503-0.872-14.185c-0.316-2.55-0.969-5.104-1.37-7.601
			c-0.374-2.325-0.773-4.645-0.731-7.012c0.004-0.174,0.001-0.349,0.001-0.522c0.039-0.006,0.079-0.012,0.118-0.019
			c0.088,0.392,0.185,0.782,0.26,1.177c0.689,3.599,1.22,7.238,2.697,10.636c0.485,1.115,0.987,2.223,1.486,3.331
			c0.324,0.717,0.676,1.424,0.981,2.148c0.37,0.876,0.735,1.756,1.038,2.655c0.115,0.339,0.076,0.739,0.063,1.109
			c-0.027,0.831-0.077,1.661-0.125,2.492c-0.016,0.283,0.107,0.431,0.377,0.519c0.245,0.08,0.464,0.243,0.709,0.324
			c0.169,0.057,0.384,0.095,0.545,0.041c0.513-0.171,0.842,0.008,1.05,0.469c0.133,0.295,0.347,0.355,0.663,0.398
			c0.807,0.109,1.396-0.346,2.053-0.649c0.142-0.064,0.36-0.043,0.514,0.017c0.411,0.162,0.8,0.405,1.244,0.197
			c-0.146-0.656-0.309-1.285-0.424-1.921c-0.046-0.258,0.031-0.536-0.002-0.797c-0.021-0.152-0.126-0.311-0.234-0.43
			c-0.325-0.363-0.68-0.702-1.001-1.067c-0.075-0.084-0.136-0.269-0.095-0.356c0.229-0.493,0.438-1.011,0.754-1.446
			c0.857-1.182,1.754-2.335,2.654-3.483c0.408-0.522,0.863-1.008,1.406-1.474c-0.013,0.133-0.015,0.267-0.041,0.396
			c-0.099,0.48-0.215,0.959-0.307,1.441c-0.094,0.516,0.253,0.889,0.783,0.867c0.154-0.007,0.31-0.001,0.494-0.001
			c-0.012,0.114,0.002,0.196-0.029,0.255c-0.479,0.919-0.97,1.832-1.449,2.752c-0.07,0.134-0.154,0.303-0.129,0.437
			c0.9,4.879,1.627,9.906,1.863,14.863c0.128,2.679,0.241,5.36,0.387,8.039c0.012,0.214,0.242,0.407,0.325,0.627
			c2.018,5.311,2.368,10.875,2.651,16.399C64.633,97.281,64.668,97.377,64.645,97.456z M74.252,97.293
			c-0.032,0.547-1.15,1.605-1.67,1.587c-0.08-0.003-0.219-0.239-0.221-0.37c-0.016-0.85,0.031-1.7-0.001-2.549
			c-0.061-1.622-0.127-3.246-0.257-4.864c-0.07-0.885-0.281-1.759-0.42-2.638c-0.361-2.276-0.707-4.543-0.795-6.862
			c-0.105-2.732,0.324-5.421,0.351-8.137c0.001-0.2,0.072-0.4,0.112-0.601c0.047-0.001,0.096-0.002,0.143-0.003
			c0.021,0.259,0.034,0.519,0.064,0.777c0.154,1.375,0.305,2.75,0.478,4.123c0.054,0.431,0.096,0.439,0.481,0.362
			c0.115,0.549,0.482,1.052,0.254,1.663c-0.021,0.058,0,0.16,0.041,0.207c0.404,0.456,0.352,1.01,0.381,1.56
			c0.016,0.313,0.123,0.632,0.245,0.926c0.374,0.9,0.263,1.852,0.335,2.783c0.158,2.096,0.305,4.192,0.459,6.289
			c0.055,0.757,0.159,1.515,0.156,2.271C74.383,94.977,74.317,96.136,74.252,97.293z"/>
	</g>
</g>
<g>
</g>
<g>
</g>
<g>
</g>
<g>
</g>
<g>
</g>
<g>
</g>
<g>
</g>
<g>
</g>
<g>
</g>
<g>
</g>
<g>
</g>
<g>
</g>
<g>
</g>
<g>
</g>
<g>
</g>
</svg>
